<?xml version="1.0" encoding="utf-8"?>
<!-- Generator: Adobe Illustrator 26.0.1, SVG Export Plug-In . SVG Version: 6.00 Build 0)  -->
<svg version="1.1" id="Layer_1" xmlns="http://www.w3.org/2000/svg" xmlns:xlink="http://www.w3.org/1999/xlink" x="0px" y="0px"
	 viewBox="0 0 59.8 66.8" style="enable-background:new 0 0 59.8 66.8;" xml:space="preserve">
<style type="text/css">
	.st0{fill:#FFFFFF;}
</style>
<g id="Grupo_130" transform="translate(-230.825 -146.1)">
	<path id="Caminho_60" class="st0" d="M286.6,152.7h-14.2c-0.3,0-0.5-0.2-0.5-0.5v-5.6c0-0.3-0.2-0.5-0.5-0.5h-21.3
		c-0.3,0-0.5,0.2-0.5,0.5v5.6c0,0.3-0.2,0.5-0.5,0.5h-14.2c-2.2,0-4.1,1.8-4.1,4.1l0,0v19.9c0,0.3,0.2,0.5,0.5,0.5h23.1
		c0.3,0,0.5-0.2,0.5-0.5v-13.8c0-0.3-0.2-0.5-0.5-0.5h-12.9c-0.3,0-0.5,0.2-0.5,0.5v3.9c0,0.3,0.2,0.5,0.5,0.5h7.6
		c0.3,0,0.5,0.2,0.5,0.5v3.9c0,0.3-0.2,0.5-0.5,0.5h-12.5c-0.3,0-0.5-0.2-0.5-0.5V158c0-0.3,0.2-0.5,0.5-0.5h17.8
		c0.3,0,0.5-0.2,0.5-0.5v-5.5c0-0.3,0.2-0.5,0.5-0.5h10.7c0.3,0,0.5,0.2,0.5,0.5v5.5c0,0.3,0.2,0.5,0.5,0.5h17.8
		c0.3,0,0.5,0.2,0.5,0.5v13.6c0,0.3-0.2,0.5-0.5,0.5h-12.5c-0.3,0-0.5-0.2-0.5-0.5v-3.9c0-0.3,0.2-0.5,0.5-0.5h7.6
		c0.3,0,0.5-0.2,0.5-0.5v-3.9c0-0.3-0.2-0.5-0.5-0.5h-12.9c-0.3,0-0.5,0.2-0.5,0.5v13.7c0,0.3,0.2,0.5,0.5,0.5h23.1
		c0.3,0,0.5-0.2,0.5-0.5v-19.9C290.7,154.5,288.8,152.7,286.6,152.7z"/>
	<path id="Caminho_61" class="st0" d="M234.9,206.4h14.2c0.3,0,0.5,0.2,0.5,0.5v5.6c0,0.3,0.2,0.5,0.5,0.5h21.3
		c0.3,0,0.5-0.2,0.5-0.5v-5.6c0-0.3,0.2-0.5,0.5-0.5h14.2c2.2,0,4.1-1.8,4.1-4.1v-19.9c0-0.3-0.2-0.5-0.5-0.5h-23.1
		c-0.3,0-0.5,0.2-0.5,0.5v13.8c0,0.3,0.2,0.5,0.5,0.5H280c0.3,0,0.5-0.2,0.5-0.5v-4c0-0.3-0.2-0.5-0.5-0.5h-7.6
		c-0.3,0-0.5-0.2-0.5-0.5v-3.9c0-0.3,0.2-0.5,0.5-0.5h12.5c0.3,0,0.5,0.2,0.5,0.5V201c0,0.3-0.2,0.5-0.5,0.5h-17.8
		c-0.3,0-0.5,0.2-0.5,0.5v5.5c0,0.3-0.2,0.5-0.5,0.5h-10.7c-0.3,0-0.5-0.2-0.5-0.5V202c0-0.3-0.2-0.5-0.5-0.5h-17.8
		c-0.3,0-0.5-0.2-0.5-0.5v-13.6c0-0.3,0.2-0.5,0.5-0.5h12.5c0.3,0,0.5,0.2,0.5,0.5v3.9c0,0.3-0.2,0.5-0.5,0.5h-7.6
		c-0.3,0-0.5,0.2-0.5,0.5v3.9c0,0.3,0.2,0.5,0.5,0.5h12.9c0.3,0,0.5-0.2,0.5-0.5v-13.7c0-0.3-0.2-0.5-0.5-0.5h-23.1
		c-0.3,0-0.5,0.2-0.5,0.5v19.9C230.8,204.6,232.6,206.4,234.9,206.4z"/>
</g>
</svg>
