<svg xmlns="http://www.w3.org/2000/svg" width="59.837" height="66.844" viewBox="0 0 59.837 66.844">
  <g id="Grupo_130" data-name="Grupo 130" transform="translate(-230.825 -146.1)">
    <path id="Caminho_60" data-name="Caminho 60" d="M286.593,152.667H272.379a.487.487,0,0,1-.5-.471V146.57a.487.487,0,0,0-.5-.47H250.11a.487.487,0,0,0-.5.47V152.2a.487.487,0,0,1-.5.471H234.894a4.069,4.069,0,0,0-4.069,4.069v19.9a.487.487,0,0,0,.5.47h23.088a.487.487,0,0,0,.5-.47V162.874a.487.487,0,0,0-.5-.471H241.508a.487.487,0,0,0-.5.471v3.948a.487.487,0,0,0,.5.471h7.6a.486.486,0,0,1,.5.47v3.89a.487.487,0,0,1-.5.471H236.632a.487.487,0,0,1-.5-.471V158.019a.487.487,0,0,1,.5-.47h17.782a.487.487,0,0,0,.5-.471v-5.526a.487.487,0,0,1,.5-.47H266.07a.487.487,0,0,1,.5.47v5.526a.487.487,0,0,0,.5.471h17.782a.487.487,0,0,1,.5.47v13.635a.487.487,0,0,1-.5.471H272.379a.487.487,0,0,1-.5-.471V167.8a.487.487,0,0,1,.5-.47h7.6a.487.487,0,0,0,.5-.47v-3.949a.487.487,0,0,0-.5-.47H267.073a.487.487,0,0,0-.5.47v13.722a.487.487,0,0,0,.5.47H290.16a.487.487,0,0,0,.5-.47v-19.9A4.069,4.069,0,0,0,286.593,152.667Z" transform="translate(0 0)" fill="#e50019"/>
    <path id="Caminho_61" data-name="Caminho 61" d="M234.894,220.526h14.213a.486.486,0,0,1,.5.47v5.626a.487.487,0,0,0,.5.471h21.266a.487.487,0,0,0,.5-.471V221a.486.486,0,0,1,.5-.47h14.213a4.07,4.07,0,0,0,4.069-4.07v-19.9a.487.487,0,0,0-.5-.47H267.073a.487.487,0,0,0-.5.47v13.761a.487.487,0,0,0,.5.471h12.9a.487.487,0,0,0,.5-.471V206.37a.486.486,0,0,0-.5-.47h-7.6a.487.487,0,0,1-.5-.471v-3.89a.487.487,0,0,1,.5-.47h12.476a.487.487,0,0,1,.5.47v13.635a.487.487,0,0,1-.5.471H267.073a.486.486,0,0,0-.5.47v5.526a.487.487,0,0,1-.5.471H255.416a.487.487,0,0,1-.5-.471v-5.526a.486.486,0,0,0-.5-.47H236.632a.487.487,0,0,1-.5-.471V201.539a.487.487,0,0,1,.5-.47h12.476a.487.487,0,0,1,.5.47v3.851a.487.487,0,0,1-.5.47h-7.6a.487.487,0,0,0-.5.471v3.948a.487.487,0,0,0,.5.471h12.909a.487.487,0,0,0,.5-.471V196.557a.487.487,0,0,0-.5-.47H231.326a.487.487,0,0,0-.5.47v19.9A4.07,4.07,0,0,0,234.894,220.526Z" transform="translate(0 -14.149)" fill="#e50019"/>
  </g>
</svg>
