<svg xmlns="http://www.w3.org/2000/svg" width="82.319" height="91.959" viewBox="0 0 82.319 91.959"><defs><style>.a{fill:#fff2e6;}</style></defs><g transform="translate(-230.825 -146.1)"><path class="a" d="M307.545,155.135H287.992a.67.67,0,0,1-.69-.648v-7.74a.669.669,0,0,0-.689-.647H257.356a.669.669,0,0,0-.69.647v7.74a.67.67,0,0,1-.689.648H236.423a5.6,5.6,0,0,0-5.6,5.6v27.375a.669.669,0,0,0,.69.647h31.762a.669.669,0,0,0,.689-.647V169.177a.67.67,0,0,0-.689-.648H245.522a.67.67,0,0,0-.689.648v5.432a.67.67,0,0,0,.689.648h10.455a.669.669,0,0,1,.689.647v5.352a.67.67,0,0,1-.689.648H238.814a.671.671,0,0,1-.69-.648V162.5a.67.67,0,0,1,.69-.647h24.463a.67.67,0,0,0,.689-.648v-7.6a.669.669,0,0,1,.689-.647h14.657a.669.669,0,0,1,.689.647v7.6a.67.67,0,0,0,.69.648h24.463a.67.67,0,0,1,.689.647v18.758a.67.67,0,0,1-.689.648H287.992a.671.671,0,0,1-.69-.648v-5.3a.67.67,0,0,1,.69-.647h10.46a.669.669,0,0,0,.689-.647V169.23a.669.669,0,0,0-.689-.647h-17.76a.67.67,0,0,0-.69.647v18.878a.67.67,0,0,0,.69.647h31.761a.67.67,0,0,0,.69-.647V160.733A5.6,5.6,0,0,0,307.545,155.135Z" transform="translate(0)"/><path class="a" d="M236.423,229.708h19.554a.669.669,0,0,1,.689.647v7.74a.67.67,0,0,0,.69.648h29.256a.67.67,0,0,0,.689-.648v-7.74a.669.669,0,0,1,.69-.647h19.554a5.6,5.6,0,0,0,5.6-5.6V196.734a.67.67,0,0,0-.69-.647H280.692a.67.67,0,0,0-.69.647v18.931a.67.67,0,0,0,.69.648h17.754a.67.67,0,0,0,.689-.648v-5.432a.669.669,0,0,0-.689-.647H287.992a.67.67,0,0,1-.69-.648v-5.352a.67.67,0,0,1,.69-.647h17.163a.67.67,0,0,1,.689.647v18.758a.67.67,0,0,1-.689.648H280.692a.669.669,0,0,0-.69.647v7.6a.67.67,0,0,1-.689.648H264.656a.67.67,0,0,1-.689-.648v-7.6a.669.669,0,0,0-.689-.647H238.814a.67.67,0,0,1-.69-.648V203.587a.67.67,0,0,1,.69-.647h17.163a.669.669,0,0,1,.689.647v5.3a.669.669,0,0,1-.689.647h-10.46a.67.67,0,0,0-.689.648v5.432a.67.67,0,0,0,.689.648h17.76a.67.67,0,0,0,.689-.648V196.734a.669.669,0,0,0-.689-.647H231.514a.669.669,0,0,0-.69.647v27.375A5.6,5.6,0,0,0,236.423,229.708Z" transform="translate(0 -0.684)"/></g></svg>