<svg id="LOCATION_ICON" data-name="LOCATION ICON" xmlns="http://www.w3.org/2000/svg" width="52" height="52" viewBox="0 0 52 52">
  <circle id="Elipse_20" data-name="Elipse 20" cx="26" cy="26" r="26" fill="#fff"/>
  <g id="GOOGLE" transform="translate(0 0)">
    <path id="Caminho_152" data-name="Caminho 152" d="M18.385,11.979c0,.788-.2.985-.985.985H13.658c-3.545,0-3.152-.2-3.152,3.152v4.136h3.348V17.1c0-.2.394-.788.591-.788h3.742v3.152c1.773-1.576,3.348-3.152,4.727-4.136A53.484,53.484,0,0,0,18.188,10.6C18.385,10.8,18.385,11.388,18.385,11.979Z" transform="translate(10.175 10.279)" fill="#2d3284"/>
    <path id="Caminho_153" data-name="Caminho 153" d="M26,0A26,26,0,1,0,52,26,25.975,25.975,0,0,0,26,0ZM38.606,27.379,27.379,38.606a1.847,1.847,0,0,1-2.955,0L13.2,27.379a1.847,1.847,0,0,1,0-2.955L24.424,13.2a1.847,1.847,0,0,1,2.955,0L38.606,24.424A11,11,0,0,1,39.591,26,8.338,8.338,0,0,1,38.606,27.379Z" transform="translate(0 0)" fill="#2d3284"/>
  </g>
</svg>
