<?xml version="1.0" encoding="utf-8"?>
<!-- Generator: Adobe Illustrator 26.0.1, SVG Export Plug-In . SVG Version: 6.00 Build 0)  -->
<svg version="1.1" id="LOCATION_ICON" xmlns="http://www.w3.org/2000/svg" xmlns:xlink="http://www.w3.org/1999/xlink" x="0px"
	 y="0px" viewBox="0 0 52 52" style="enable-background:new 0 0 52 52;" xml:space="preserve">
<style type="text/css">
	.st0{fill:#2D3284;}
	.st1{fill:#FFFFFF;}
</style>
<rect x="10.6" y="11.2" class="st0" width="30.5" height="30.5"/>
<circle id="Elipse_20" class="st0" cx="26" cy="26" r="26"/>
<path id="Caminho_152" class="st1" d="M28.6,22.3c0,0.8-0.2,1-1,1h-3.7c-3.5,0-3.2-0.2-3.2,3.2v4.1H24v-3.2c0-0.2,0.4-0.8,0.6-0.8
	h3.7v3.2c1.8-1.6,3.3-3.2,4.7-4.1c-1.5-1.7-3.1-3.3-4.7-4.7C28.6,21.1,28.6,21.7,28.6,22.3z"/>
<path id="Caminho_153" class="st1" d="M26,0C11.6,0,0,11.6,0,26s11.6,26,26,26s26-11.6,26-26C52,11.7,40.4,0,26,0C26,0,26,0,26,0z
	 M38.6,27.4L27.4,38.6c-0.6,0.8-1.8,1-2.6,0.4c-0.1-0.1-0.3-0.2-0.4-0.4L13.2,27.4c-0.8-0.6-1-1.8-0.4-2.6c0.1-0.1,0.2-0.3,0.4-0.4
	l11.2-11.2c0.6-0.8,1.8-1,2.6-0.4c0.1,0.1,0.3,0.2,0.4,0.4l11.2,11.2c0.4,0.5,0.7,1,1,1.6C39.3,26.5,39,27,38.6,27.4z"/>
</svg>
