<svg xmlns="http://www.w3.org/2000/svg" width="322.01" height="73.883" viewBox="0 0 322.01 73.883"><defs><style>.a{fill:#fee5cf;}</style></defs><g transform="translate(-360 -15.364)"><g transform="translate(129.175 -130.736)"><path class="a" d="M274.9,151.29H263.668a.385.385,0,0,1-.4-.372v-4.446a.385.385,0,0,0-.4-.372H246.067a.385.385,0,0,0-.4.372v4.446a.385.385,0,0,1-.4.372H234.041a3.216,3.216,0,0,0-3.216,3.216v15.727a.385.385,0,0,0,.4.372h18.248a.385.385,0,0,0,.4-.372V159.358a.385.385,0,0,0-.4-.372h-10.2a.385.385,0,0,0-.4.372v3.12a.385.385,0,0,0,.4.372h6.006a.384.384,0,0,1,.4.372V166.3a.385.385,0,0,1-.4.372h-9.86a.385.385,0,0,1-.4-.372V155.52a.385.385,0,0,1,.4-.372h14.054a.385.385,0,0,0,.4-.372v-4.368a.385.385,0,0,1,.4-.372h8.42a.385.385,0,0,1,.4.372v4.368a.385.385,0,0,0,.4.372h14.054a.385.385,0,0,1,.4.372V166.3a.385.385,0,0,1-.4.372h-9.86a.385.385,0,0,1-.4-.372v-3.044a.385.385,0,0,1,.4-.372h6.009a.385.385,0,0,0,.4-.372v-3.121a.385.385,0,0,0-.4-.372h-10.2a.385.385,0,0,0-.4.372v10.846a.385.385,0,0,0,.4.372h18.247a.385.385,0,0,0,.4-.372V154.507A3.216,3.216,0,0,0,274.9,151.29Z" transform="translate(0)"/><path class="a" d="M234.041,215.4h11.234a.384.384,0,0,1,.4.372v4.446a.385.385,0,0,0,.4.372h16.808a.385.385,0,0,0,.4-.372v-4.446a.384.384,0,0,1,.4-.372H274.9a3.217,3.217,0,0,0,3.216-3.217V196.459a.385.385,0,0,0-.4-.372H259.474a.385.385,0,0,0-.4.372v10.876a.385.385,0,0,0,.4.372h10.2a.385.385,0,0,0,.4-.372v-3.12a.384.384,0,0,0-.4-.372h-6.006a.385.385,0,0,1-.4-.372V200.4a.385.385,0,0,1,.4-.372h9.86a.385.385,0,0,1,.4.372v10.776a.385.385,0,0,1-.4.372H259.474a.384.384,0,0,0-.4.372v4.368a.385.385,0,0,1-.4.372h-8.42a.385.385,0,0,1-.4-.372v-4.368a.384.384,0,0,0-.4-.372H235.415a.385.385,0,0,1-.4-.372V200.4a.385.385,0,0,1,.4-.372h9.86a.385.385,0,0,1,.4.372v3.044a.385.385,0,0,1-.4.372h-6.009a.385.385,0,0,0-.4.372V207.3a.385.385,0,0,0,.4.372h10.2a.385.385,0,0,0,.4-.372V196.459a.385.385,0,0,0-.4-.372H231.221a.385.385,0,0,0-.4.372v15.727A3.217,3.217,0,0,0,234.041,215.4Z" transform="translate(0 -21.662)"/></g><g transform="translate(353.369 -144.881)"><path class="a" d="M210.76,176.568h-3.571a.718.718,0,0,0-.672.386l-1.976,4.6c-.1.224.111.459.405.459h1.911a.746.746,0,0,0,.633-.313l3.6-4.7C211.211,176.8,211.034,176.568,210.76,176.568Z" transform="translate(-47.964 -0.041)"/><path class="a" d="M91.556,176.568H86.472a.566.566,0,0,0-.492.286l-3.637,6.4a.566.566,0,0,1-.985,0l-3.61-6.393a.567.567,0,0,0-.493-.288H72.047a.566.566,0,0,0-.484.86L78.835,189.4a.568.568,0,0,1,.082.294v7.032a.566.566,0,0,0,.567.567h4.639a.566.566,0,0,0,.566-.567v-7.121a.567.567,0,0,1,.084-.3L92.04,177.43A.566.566,0,0,0,91.556,176.568Z" transform="translate(0 -0.041)"/><path class="a" d="M227.368,184.533c-2.177-.623-3.4-.971-3.314-1.868.051-.549.525-.95,1.633-.95a13.692,13.692,0,0,1,5.476,1.516.741.741,0,0,0,.973-.281l1.8-3.461a.7.7,0,0,0-.266-.959,16.875,16.875,0,0,0-7.912-1.961,9.171,9.171,0,0,0-5.609,1.649c-1.282.9-3.4,4.082-1.71,7.287.936,1.771,3.734,2.893,6.365,3.555,2.177.589,3.862,1.054,3.5,2.267-.237.8-1.516.855-2.772.735a13.012,13.012,0,0,1-5.73-1.821.734.734,0,0,0-.987.215l-1.958,3.312a.711.711,0,0,0,.219.983,17.258,17.258,0,0,0,9.181,2.545c4.685,0,7.928-2.333,8.126-5.757a5.587,5.587,0,0,0-.93-3.538C232.334,186.315,230.268,185.373,227.368,184.533Z" transform="translate(-52.374 -0.041)"/><path class="a" d="M282.616,176.568H278a.566.566,0,0,0-.567.567v6.626a.567.567,0,0,1-.567.567h-6.239a.566.566,0,0,1-.567-.567v-6.626a.566.566,0,0,0-.567-.567h-4.612a.566.566,0,0,0-.567.567v19.594a.567.567,0,0,0,.567.567H269.5a.567.567,0,0,0,.567-.567v-6.744a.566.566,0,0,1,.567-.567h6.239a.566.566,0,0,1,.567.567v6.744a.567.567,0,0,0,.567.567h4.612a.566.566,0,0,0,.566-.567V177.135A.566.566,0,0,0,282.616,176.568Z" transform="translate(-69.525 -0.041)"/><path class="a" d="M388.972,176.568h-8.317a.566.566,0,0,0-.567.567v19.594a.567.567,0,0,0,.567.567h4.612a.567.567,0,0,0,.567-.567v-5.355h2.841c5.153,0,8.913-2.576,8.913-7.46v-.06C397.588,179.264,394.212,176.568,388.972,176.568Zm2.871,7.61c0,1.63-1.244,2.693-3.286,2.693h-2.151a.573.573,0,0,1-.573-.573v-4.329a.573.573,0,0,1,.573-.573h2.121c2.072,0,3.316.946,3.316,2.723Z" transform="translate(-111.264 -0.041)"/><path class="a" d="M351.175,176.568h-16.8a.566.566,0,0,0-.567.567v4.611a.567.567,0,0,0,.567.567h4.956a.573.573,0,0,1,.574.573v13.842a.567.567,0,0,0,.567.567h4.611a.567.567,0,0,0,.567-.567V182.885a.573.573,0,0,1,.573-.573h4.949a.573.573,0,0,0,.573-.573v-4.6A.573.573,0,0,0,351.175,176.568Z" transform="translate(-94.58 -0.041)"/><path class="a" d="M308.625,176.568a10.206,10.206,0,0,0-10.3,10.363v.074a10.269,10.269,0,1,0,20.538-.074v-.074A10.108,10.108,0,0,0,308.625,176.568Zm4.275,10.444c0,2.621-1.664,4.837-4.272,4.837-2.534,0-4.348-2.257-4.348-4.918v-.081c0-2.62,1.664-4.837,4.272-4.837,2.534,0,4.348,2.257,4.348,4.918Z" transform="translate(-81.784 -0.041)"/><path class="a" d="M123.722,176.454h-4.68a.573.573,0,0,0-.574.573v12.082a2.566,2.566,0,1,1-5.133,0V177.027a.573.573,0,0,0-.574-.573h-4.68a.573.573,0,0,0-.573.573v12.287a7.778,7.778,0,0,0,4.7,7.163c6.134,2.612,12.083-1.739,12.083-7.422V177.027A.573.573,0,0,0,123.722,176.454Z" transform="translate(-12.99 0)"/><path class="a" d="M421.077,176.568a10.206,10.206,0,0,0-10.3,10.363v.074a10.269,10.269,0,1,0,20.538-.074v-.074A10.109,10.109,0,0,0,421.077,176.568Zm4.275,10.444c0,2.621-1.664,4.837-4.272,4.837-2.534,0-4.348-2.257-4.348-4.918v-.081c0-2.62,1.664-4.837,4.271-4.837,2.534,0,4.348,2.257,4.348,4.918Z" transform="translate(-122.327 -0.041)"/><path class="a" d="M187.667,176.758h-4.039a.573.573,0,0,0-.573.573v10.861l-6.288-11.14a.572.572,0,0,0-.5-.291l-5.025.033a.573.573,0,0,0-.569.574V196.79a.573.573,0,0,0,.573.574h4.038a.574.574,0,0,0,.574-.574V185.984l6.258,11.088a.574.574,0,0,0,.5.292h5.054a.573.573,0,0,0,.573-.574V177.331A.573.573,0,0,0,187.667,176.758Z" transform="translate(-35.762 -0.11)"/><path class="a" d="M148.373,177.147a.573.573,0,0,0-.543-.389h-4.66a.573.573,0,0,0-.54.382l-6.86,19.459a.573.573,0,0,0,.54.764h4.261a.573.573,0,0,0,.54-.383l.873-2.475a.426.426,0,0,1,.4-.285h6.01a.427.427,0,0,1,.4.289l.838,2.465a.574.574,0,0,0,.543.389h4.265a.574.574,0,0,0,.543-.758Zm-4.594,12.266,1.391-3.947a.294.294,0,0,1,.556,0l1.34,3.944Z" transform="translate(-23.166 -0.11)"/><path class="a" d="M462.945,176.568h-16.8a.566.566,0,0,0-.567.567v4.611a.567.567,0,0,0,.567.567H451.1a.573.573,0,0,1,.574.573v13.842a.567.567,0,0,0,.567.567h4.611a.567.567,0,0,0,.567-.567V182.885a.573.573,0,0,1,.573-.573h4.95a.573.573,0,0,0,.573-.573v-4.6A.573.573,0,0,0,462.945,176.568Z" transform="translate(-134.877 -0.041)"/></g><g transform="translate(513.125 -77.351)"><path class="a" d="M80.424,160.851a5.526,5.526,0,0,0-.642.623.588.588,0,0,1-.2.18,3.082,3.082,0,0,0-.713.571c-.18.173-.361.343-.551.506-.293.25-.562.528-.843.792a1.93,1.93,0,0,1-.206.178,5.659,5.659,0,0,0-.877.85c-.268.293-.536.588-.822.863a2.2,2.2,0,0,1-.627.4,2.689,2.689,0,0,1-.612.216.844.844,0,0,1,.149-.579,13.466,13.466,0,0,1,1.255-1.616c.311-.347.634-.684.96-1.018.468-.481.96-.935,1.47-1.372.587-.5,1.175-1,1.731-1.54a3.229,3.229,0,0,0,.717-.86c.05-.1.1-.2.146-.316-.112-.126-.22-.241-.321-.363a2.835,2.835,0,0,0-.322-.348,1.912,1.912,0,0,1-.442-.711,2.313,2.313,0,0,1-.073-1.465.711.711,0,0,1,.17-.328,1.348,1.348,0,0,1,.914-.532.575.575,0,0,0,.361-.173,1.982,1.982,0,0,1,.6-.371.858.858,0,0,0,.113-.068c-.01-.093-.082-.069-.128-.073a.852.852,0,0,0-.622.232,1.714,1.714,0,0,1-.956.4c-.317.021-.635.032-.952.05a2.526,2.526,0,0,0-.373.036.5.5,0,0,0-.409.315.638.638,0,0,1-.531.382,1.66,1.66,0,0,0-.633.318A.494.494,0,0,0,77,156.2a1.083,1.083,0,0,1-.349.366,2.771,2.771,0,0,0-.524.484,2.666,2.666,0,0,1-.684.609,1.631,1.631,0,0,0-.548.641c-.13.238-.268.472-.4.708-.241.152-.423.428-.767.369a.272.272,0,0,0-.135.008,1.849,1.849,0,0,1-.906.045,1.451,1.451,0,0,1-1-.5,1.145,1.145,0,0,1-.2-.806,2.813,2.813,0,0,1,.06-.369.453.453,0,0,1,.025-.133,1.221,1.221,0,0,1,.883-.72.941.941,0,0,0,.19-.06c.1-.042.206-.09.31-.134a.6.6,0,0,0,.125-.049,7.751,7.751,0,0,1,1.2-.571,3.779,3.779,0,0,1,.419-.132c.307-.114.621-.217.914-.36a7.868,7.868,0,0,1,.86-.3,3.526,3.526,0,0,0,.672-.328,3.883,3.883,0,0,1,.675-.319,5.881,5.881,0,0,0,1.149-.594,4.05,4.05,0,0,1,1.147-.51,7.594,7.594,0,0,0,1.331-.6.625.625,0,0,0,.33-.525,3.117,3.117,0,0,0,.033-.474,1.784,1.784,0,0,0-.085-.348c-.043-.022-.113-.054-.18-.092-.049-.028-.116-.053-.137-.1-.106-.221-.334-.333-.461-.527a4.278,4.278,0,0,0-.308-.4.942.942,0,0,0-.344-.271.231.231,0,0,1-.161-.3.393.393,0,0,0-.077-.352.538.538,0,0,1-.077-.487,1.051,1.051,0,0,0,.023-.537,1.281,1.281,0,0,1,0-.286.785.785,0,0,1,.8-.206c.255.051.507.118.76.176a.153.153,0,0,0,.186-.108.489.489,0,0,0,.02-.1c.034-.383.043-.771.106-1.149a5.061,5.061,0,0,1,.191-.957,4.39,4.39,0,0,1,.188-.615,1.749,1.749,0,0,1,.409-.494.558.558,0,0,1,.58-.074,1.478,1.478,0,0,1,.815.729.3.3,0,0,1,.041.093c.054.347.107.695.154,1.043a.642.642,0,0,1-.022.2c-.024.122-.048.244-.083.364a.664.664,0,0,1-.09.181,2.364,2.364,0,0,1-.223.3,1.078,1.078,0,0,0-.182.993.252.252,0,0,0,.129.143,1.971,1.971,0,0,1,.694.516.3.3,0,0,1,.078.11.846.846,0,0,0,.225.371.547.547,0,0,1,.09.422c-.011.168-.025.336-.04.534a2.972,2.972,0,0,0-.407.454.65.65,0,0,1-.441.233c-.255.034-.331.246-.473.392-.027.028,0,.106,0,.163a.505.505,0,0,0,.407-.005,4.273,4.273,0,0,0,1.083-.487,1.407,1.407,0,0,1,.246-.114.794.794,0,0,0,.371-.284.9.9,0,0,1,.5-.339,1.158,1.158,0,0,1,1.131.153.886.886,0,0,1,.243,1.184.866.866,0,0,1-.477.365.748.748,0,0,0-.3.146.321.321,0,0,1-.155.06c-.3.058-.6.106-.9.169a4.544,4.544,0,0,0-.524.15.646.646,0,0,0-.235.132,3.127,3.127,0,0,1-.813.489,2.55,2.55,0,0,0-.516.32c-.086.073-.172.148-.264.214s-.167.1-.3.177a.9.9,0,0,0,.7-.131.786.786,0,0,1,.9-.011.548.548,0,0,1,.067.895c-.079.062-.152.132-.233.192-.118.087-.239.171-.361.252-.141.094-.288.18-.427.279a.459.459,0,0,0-.236.376,1.992,1.992,0,0,0,.244.092.693.693,0,0,1,.291,1.185,5.817,5.817,0,0,0-.621.719,5.451,5.451,0,0,1-.516.489c-.074.068-.153.13-.239.2a.526.526,0,0,0,.083.123c.208.157.425.3.628.465a.321.321,0,0,0,.434,0,.431.431,0,0,0,.081-.062,7.121,7.121,0,0,0,.736-.891,1.256,1.256,0,0,0,.211-.567.5.5,0,0,1,.4-.455.962.962,0,0,1,1.084.37,1.117,1.117,0,0,1,.264.618.692.692,0,0,1-.382.667.668.668,0,0,1-.064.024,1.731,1.731,0,0,0-.6.38c-.255.241-.536.456-.805.683-.042.036-.081.076-.138.129a1.523,1.523,0,0,0,.344.327,5.022,5.022,0,0,0,1.952.842c.144.029.281.088.424.125.351.092.7.176,1.054.27a5.065,5.065,0,0,1,1.22.416,2.828,2.828,0,0,1,.37.223,1.063,1.063,0,0,0,.463.2,1.156,1.156,0,0,1,.67.477,1.347,1.347,0,0,1-.218.049,1.934,1.934,0,0,0-.665.123.781.781,0,0,1-.6.049.259.259,0,0,0-.166,0,1.965,1.965,0,0,1-.771.062,2.4,2.4,0,0,0-.539.059.44.44,0,0,1-.265-.014.281.281,0,0,0-.1-.022,2.623,2.623,0,0,1-.847-.234c-.105-.042-.208-.089-.311-.135a.455.455,0,0,0-.123-.058,2.482,2.482,0,0,1-.782-.317c-.17-.077-.3-.029-.338.149a1.414,1.414,0,0,0-.04.4,1.138,1.138,0,0,1-.369.882c-.478.5-.958,1-1.454,1.482a2.571,2.571,0,0,1-.885.559,1.43,1.43,0,0,1-.5.073.962.962,0,0,1-.512-.247,2.035,2.035,0,0,1-.692-.815,4.763,4.763,0,0,0-.3-.532,1.707,1.707,0,0,1-.215-.883c-.016-.306.008-.613,0-.92,0-.148.111-.262.074-.424a1.3,1.3,0,0,1,.032-.4c.03-.282.062-.564.091-.847A.659.659,0,0,0,80.424,160.851Zm1.386,1.239.045.249a1.879,1.879,0,0,0-.511.552.479.479,0,0,0-.092.384,1.985,1.985,0,0,0,.091.326c.074.178.174.344.243.524a2.238,2.238,0,0,0,.41.537.3.3,0,0,0,.209.1,1.344,1.344,0,0,0,.467-.055,1.979,1.979,0,0,0,.64-.375,20.782,20.782,0,0,0,1.54-1.587,1.706,1.706,0,0,0,.139-.206.356.356,0,0,0-.176-.226c-.395-.263-.788-.528-1.182-.792-.344-.23-.386-.23-.717,0-.055.039-.1.089-.155.133a.923.923,0,0,1-.512.239A.653.653,0,0,0,81.809,162.09Zm-.018-2.117a.332.332,0,0,0-.248.317,2.2,2.2,0,0,1-.173.514,1.912,1.912,0,0,0-.1.835c0,.028.031.055.046.082.17-.1.336-.2.5-.3a.453.453,0,0,0,.087-.1,2.286,2.286,0,0,0,.151-.183,2.353,2.353,0,0,1,.373-.343c.152-.146.152-.273-.015-.4A2.122,2.122,0,0,0,81.791,159.973Zm-.206-3.046c.045-.147.079-.244.1-.342a.684.684,0,0,1,.377-.494.606.606,0,0,0,.142-.09c.2-.171.39-.343.581-.52a.636.636,0,0,0,.082-.164,1.35,1.35,0,0,0-.236.026,3.894,3.894,0,0,0-.544.192.5.5,0,0,1-.514-.027,1.611,1.611,0,0,0-.212-.107.138.138,0,0,0-.176.063.569.569,0,0,0-.085.392,2.94,2.94,0,0,0,.123.6A.848.848,0,0,0,81.585,156.926Z" transform="translate(0 -1.956)"/><path class="a" d="M203.058,170.752c.092.113.163.188.218.272a4.983,4.983,0,0,1,.322.519.463.463,0,0,1-.125.554,1.655,1.655,0,0,1-.69.412,2.029,2.029,0,0,0-.452.229q-.241.127-.48.257a.23.23,0,0,0-.085.056,1.1,1.1,0,0,1-.534.349.989.989,0,0,0-.543.772c-.019.076-.01.16-.035.234a5.822,5.822,0,0,0-.143.973.168.168,0,0,0,.008.1,8.185,8.185,0,0,1,.247.808,1.715,1.715,0,0,0,.869,1,1.058,1.058,0,0,1,.179.1,2.423,2.423,0,0,0,1.188.35c.249.022.5.049.747.061a3.235,3.235,0,0,0,.438-.02c.26-.023.519-.057.779-.079a2.487,2.487,0,0,0,.617-.183,5.548,5.548,0,0,0,.63-.252,1.163,1.163,0,0,0,.595-.575,15.769,15.769,0,0,0,.7-1.994,1.155,1.155,0,0,0,.049-.268,4.066,4.066,0,0,1,.383-1.37,1.608,1.608,0,0,1,.245-.316c0,.085.007.134.01.183a1.954,1.954,0,0,0,.014.2c.055.335.121.669.169,1.006.059.416.1.834.153,1.251a.654.654,0,0,1-.017.135c-.019.191-.037.383-.05.574a3.377,3.377,0,0,1-.18.761,1.619,1.619,0,0,0-.109.564.663.663,0,0,1-.117.385c-.107.172-.2.353-.313.523a1.229,1.229,0,0,1-.184.194c-.024.023-.063.033-.084.058a2.767,2.767,0,0,1-.886.609,4.059,4.059,0,0,1-1.29.384c-.155-.043-.315.061-.469-.016-.366.09-.744,0-1.115.082a3.173,3.173,0,0,1-.711.043,1.167,1.167,0,0,1-.55-.164c-.248-.137-.493-.278-.738-.42a2.967,2.967,0,0,0-.617-.283,2.153,2.153,0,0,1-.955-.56,2.188,2.188,0,0,1-.47-.7,2.114,2.114,0,0,1-.143-.794c0-.419-.013-.838-.014-1.258,0-.158.025-.316.027-.475.007-.626.009-1.251.014-1.877a3,3,0,0,0-.058-.779.948.948,0,0,1,0-.237c0-.1.007-.2,0-.3a.8.8,0,0,1,.581-.85l.127-.043c.088.038.169.08.256.107a.606.606,0,0,0,.65-.161,3.367,3.367,0,0,0,.657-.946.339.339,0,0,0-.031-.379c-.247-.366-.472-.748-.706-1.123a.38.38,0,0,0-.081-.109c-.242-.177-.208-.448-.209-.687a.785.785,0,0,1,.255-.541c.246-.249.245-.255.595-.2a1.589,1.589,0,0,1,.46.108,1.471,1.471,0,0,0,.79.113c.18-.015.362,0,.543,0a.6.6,0,0,1,.467.242c.117.139.241.272.35.416a1.475,1.475,0,0,1,.213.344,3.648,3.648,0,0,1,.169.587.7.7,0,0,1-.021.3,1.736,1.736,0,0,1-.832,1.028A2.076,2.076,0,0,0,203.058,170.752Z" transform="translate(-97.006 -18.767)"/><path class="a" d="M170.7,184.3c-.072.029-.147.066-.233-.039a2.343,2.343,0,0,1,.313-.464c.158-.147.312-.3.47-.445a.564.564,0,0,0,.138-.631.739.739,0,0,0-.638-.511c-.065-.005-.142,0-.169-.108a2.67,2.67,0,0,0,.27-.181c.058-.048.13-.121.133-.185a1.174,1.174,0,0,1,.106-.391.337.337,0,0,0-.073-.378,1.194,1.194,0,0,0-.589-.388.964.964,0,0,1-.354-.177.191.191,0,0,1,.183-.184c.31-.018.5-.245.733-.4a.229.229,0,0,0,.083-.3.564.564,0,0,0-.125-.195,1.2,1.2,0,0,0-.832-.336c-.125,0-.251.009-.375,0a1.06,1.06,0,0,1-.218-.071,1.762,1.762,0,0,1,.184-.181,4.4,4.4,0,0,0,.422-.286,4.345,4.345,0,0,1,.771-.539q.193-.112.38-.235a.535.535,0,0,0,.139-.147,1.753,1.753,0,0,0,.256-.553,2.722,2.722,0,0,0-.181-.245.538.538,0,0,0-.455-.194,1.212,1.212,0,0,0-.494.1c-.184.11-.376.2-.564.3s-.391.22-.586.332l-.529.3c-.294.171-.583.35-.882.512-.239.129-.487.243-.736.352a5.2,5.2,0,0,0-.624.278.736.736,0,0,1-.1.054l-1.075.436c-.434.287-.892.539-1.339.807a1.346,1.346,0,0,1-.5.2.633.633,0,0,0-.164.046.8.8,0,0,0-.45.44,1.5,1.5,0,0,0-.069.5,1.035,1.035,0,0,0,.145.52.761.761,0,0,0,.651.374,1.588,1.588,0,0,0,.647-.171.414.414,0,0,0,.22-.258.171.171,0,0,1,.057-.07c.308-.217.615-.434.927-.645.26-.176.51-.366.763-.551.219-.161.448-.3.67-.458a6.885,6.885,0,0,1,.951-.455.572.572,0,0,1,.179-.018c.009.08.016.146.025.211a.506.506,0,0,0,.489.509c.092.016.2-.008.287.061-.1.111-.192.215-.292.3a2.348,2.348,0,0,1-.206.116.419.419,0,0,0-.142.142,1.184,1.184,0,0,0-.137.521.635.635,0,0,0,.223.546.591.591,0,0,1,.105.162c-.088.1-.1.161-.278.16a.8.8,0,0,0-.8.752c-.012.2-.155.3-.278.4a.429.429,0,0,1-.373.129.284.284,0,0,0-.272.1,1.549,1.549,0,0,0-.444.965,2.24,2.24,0,0,0,.441,1.53,2.131,2.131,0,0,0,.9.746c.384.161.746.377,1.145.506.107.035.215.066.319.108a1.143,1.143,0,0,0,.819.094.588.588,0,0,0,.336-.2c.09-.129.158-.273.228-.4a.779.779,0,0,0-.2-.411,1.146,1.146,0,0,1-.2-.275.277.277,0,0,1-.009-.191.535.535,0,0,1,.113-.167,2.1,2.1,0,0,1,.851-.607,1.569,1.569,0,0,0,.831-.815l-.183-.256A1.121,1.121,0,0,0,170.7,184.3Zm-1.543-.118c-.109.21-.229.415-.332.627a1.056,1.056,0,0,1-.427.38.969.969,0,0,1-.44-.422.733.733,0,0,1,.3-.393,1.9,1.9,0,0,1,.255-.179q.3-.173.608-.333a.573.573,0,0,1,.187-.012C169.251,183.978,169.209,184.08,169.158,184.178Zm.446-1.53c-.595.305-1.137.7-1.756.963a.907.907,0,0,1-.158.036c-.034-.118.046-.163.1-.21a7.519,7.519,0,0,0,.791-.8.786.786,0,0,1,.4-.254,1.981,1.981,0,0,1,.866-.1A.366.366,0,0,1,169.6,182.648Z" transform="translate(-69.294 -26.092)"/><path class="a" d="M191.645,159.4c-.027-.145-.033-.294-.06-.439a1.3,1.3,0,0,0-.209-.529,6.479,6.479,0,0,0-.568-.731,6.49,6.49,0,0,1-.451-.556,2.756,2.756,0,0,0-.8-.74.858.858,0,0,0-.746-.08.948.948,0,0,0-.54.576,1.825,1.825,0,0,0-.156,1.03,4.083,4.083,0,0,0,.165.729,2.374,2.374,0,0,0,.885,1.289.32.32,0,0,1,.179.247c-.037.034-.076.074-.12.109l-1.114,1.129a.02.02,0,0,0,.025.031,4.721,4.721,0,0,1,1.175-.612,1.867,1.867,0,0,1,.448-.067c.236,0,.472-.011.707-.006a.933.933,0,0,0,.426-.1,1.518,1.518,0,0,0,.38-.282A1.041,1.041,0,0,0,191.645,159.4Z" transform="translate(-88.375 -10.747)"/><path class="a" d="M335.7,164.867a1.5,1.5,0,0,1,.2-.85.3.3,0,0,1,.111-.164,1.311,1.311,0,0,1,.659-.233.959.959,0,0,1,.62.232c.079.077.192.122.265.2a.9.9,0,0,1,.317.544.276.276,0,0,0,.071.152c.133.153.282.293.407.451a3.625,3.625,0,0,1,.574.917.926.926,0,0,1,.035.2,1.478,1.478,0,0,0,.166.55.48.48,0,0,1,.073.39,1.126,1.126,0,0,1-.26.579c-.025.023-.06.035-.083.06a.956.956,0,0,1-1,.206,2.356,2.356,0,0,1-.817-.407,1.731,1.731,0,0,1-.357-.359,3.1,3.1,0,0,1-.73-1.088c-.051-.207-.153-.4-.2-.611A3.646,3.646,0,0,1,335.7,164.867Z" transform="translate(-200.217 -16.307)"/><path class="a" d="M395.179,223.053c0-.007,0-.013,0-.019l-.014.011Z" transform="translate(-245.295 -61.335)"/><path class="a" d="M343.037,148.584a2.96,2.96,0,0,1,.425-.281,4.717,4.717,0,0,0,.577-.282,2.481,2.481,0,0,1,.583-.289,4.37,4.37,0,0,0,.455-.21,1.01,1.01,0,0,0,.543-.659.836.836,0,0,0,.03-.333,2.823,2.823,0,0,0-.3-.97.987.987,0,0,0-.3-.362,5.975,5.975,0,0,0-.528-.292.537.537,0,0,0-.519-.025,8.573,8.573,0,0,0-.949.58,2.984,2.984,0,0,1-.995.578.238.238,0,0,1-.264-.031.689.689,0,0,1,.111-.537,1.519,1.519,0,0,0,.209-.5,2.085,2.085,0,0,0,.044-.508,2.343,2.343,0,0,0-.2-1.062,5.485,5.485,0,0,1-.284-.58,2.881,2.881,0,0,0-.307-.528.418.418,0,0,0-.643-.086,1.476,1.476,0,0,0-.487,1.379c.06.347.121.694.163,1.043.023.19.031.382.059.574.042.292.04.589.062.884a.491.491,0,0,1-.24.453,6.007,6.007,0,0,1-.958.506c-.309.116-.586.291-.88.433a1.742,1.742,0,0,0-.317.2.353.353,0,0,0-.134.187.772.772,0,0,0,.224.778c.043.037.1.063.136.1a.471.471,0,0,0,.567.088c.279-.123.55-.263.817-.41a1.685,1.685,0,0,1,.705-.212.431.431,0,0,1,.1.33,1.861,1.861,0,0,1-.07.435.549.549,0,0,1-.2.225,5.442,5.442,0,0,0-.677.682.5.5,0,0,0-.14.35c0,.15.015.3.02.45a.6.6,0,0,0,.226.476.456.456,0,0,1,.112.113.735.735,0,0,0,.317.262l.253.122a.275.275,0,0,1,.129.115,1.016,1.016,0,0,1,.033.609c-.011.091-.092.144-.179.189q-.711.364-1.414.741a3.393,3.393,0,0,1-.955.428c-.181.034-.18.213-.232.344-.016.039,0,.09,0,.135a1.235,1.235,0,0,1-.038.234c-.056.18-.149.2-.3.09a1.542,1.542,0,0,1-.364-.4l-.138-.266a.553.553,0,0,0-.724-.259,1.1,1.1,0,0,0-.22.148,1.252,1.252,0,0,0-.434,1.16,2.677,2.677,0,0,1,.023.337.64.64,0,0,0,.117.45.877.877,0,0,1,.111.211.912.912,0,0,0,.358.4c.085.056.183.1.262.159a1.062,1.062,0,0,0,.6.217,3.547,3.547,0,0,1,1.13.338,6.247,6.247,0,0,0,.6.231.451.451,0,0,0,.48-.084c.2-.222.461-.418.447-.77a.5.5,0,0,1,.036-.145,1.98,1.98,0,0,0-.6-.794.892.892,0,0,0-.319-.188.931.931,0,0,1-.486-.271.618.618,0,0,1,.325-.275,1.278,1.278,0,0,0,.5-.335,3.048,3.048,0,0,1,1.3-.765.73.73,0,0,1,.176,0c0,.146,0,.27.014.392a.28.28,0,0,1-.128.263,1.225,1.225,0,0,1-.238.12.753.753,0,0,0-.391.315,1.419,1.419,0,0,0-.173,1.079.851.851,0,0,1,.038.165.382.382,0,0,0,.11.24,1.323,1.323,0,0,0,.472.382.485.485,0,0,1,.307.486,2.436,2.436,0,0,0,.026.271,6.941,6.941,0,0,1,.09,1.247,5.5,5.5,0,0,0,.059.93,1.135,1.135,0,0,1-.013.129,1.993,1.993,0,0,0,0,.306c.069.507.034,1.018.059,1.527.011.215.024.566.017.781a10.46,10.46,0,0,0,.071,1.362c.02.2.042.406.05.61.015.386.044.772.093,1.155l.006.049c.049.3.115.591.186.883a.418.418,0,0,0,.05.092l.215-.055.261.228a.662.662,0,0,0,.2-.444c.023-.214.016-.432.053-.643a15.493,15.493,0,0,0,.1-1.6,11.584,11.584,0,0,1,.047-1.359,1.172,1.172,0,0,0,0-.2c0-.375-.007-.751.01-1.125.02-.443.066-.884.093-1.327a3.948,3.948,0,0,0-.093-1.088c-.071-.318-.1-.645-.143-.969a.163.163,0,0,1,.005-.068,1.671,1.671,0,0,0,.036-.508c0-.17.018-.34.033-.509a.4.4,0,0,1,.2-.34c.078-.045.155-.09.237-.128a5.034,5.034,0,0,1,1.032-.338.6.6,0,0,0,.532-.463.175.175,0,0,1,.051-.088.721.721,0,0,0,.161-.508.576.576,0,0,0-.554-.609,1.2,1.2,0,0,0-.374.009,1.775,1.775,0,0,1-.787-.057.267.267,0,0,1,.068-.3,5.484,5.484,0,0,1,.442-.514,1.9,1.9,0,0,1,.492-.336,4.359,4.359,0,0,1,.848-.3,4.438,4.438,0,0,0,.616-.275l.036-.023a1.178,1.178,0,0,0,.253-.751.57.57,0,0,0-.188-.456.333.333,0,0,1-.053-.087c-.1-.224-.334-.294-.508-.431a.4.4,0,0,0-.23-.041,1.77,1.77,0,0,0-.3.029c-.394.068-.361.065-.733.379a1.827,1.827,0,0,1-.325.227c-.113.059-.231.111-.349.16-.188.078-.381.147-.574.212a.176.176,0,0,1-.213-.055c0-.084.006-.2,0-.309a.4.4,0,0,1,.134-.336,1.256,1.256,0,0,1,.238-.186c.138-.077.29-.129.428-.207.262-.149.5-.317.481-.674a.817.817,0,0,1,.057-.195.541.541,0,0,0-.2-.634.621.621,0,0,1-.1-.092c-.113-.118-.118-.191-.022-.331A.493.493,0,0,1,343.037,148.584Zm-.289,3.987c-.044.087-.057.16-.1.194-.173.13-.293.343-.579.385-.013-.138-.023-.236-.033-.336A1.063,1.063,0,0,1,342.747,152.571Zm-.957-4.65c-.093-.183-.1-.245.017-.318a3.311,3.311,0,0,1,.383-.2c.011-.005.036.019.068.037A.866.866,0,0,1,341.791,147.921Z" transform="translate(-200.109)"/><path class="a" d="M269.056,153.985a2.007,2.007,0,0,0-.571-.622.908.908,0,0,0-.991-.118c-.121.063-.236.137-.353.207-.078.046-.154.1-.233.14a9.871,9.871,0,0,1-1.7.686c-.129.041-.257.089-.388.124a.58.58,0,0,1-.17-.009v-.535l.334-.226a2.534,2.534,0,0,0,.765-.71.435.435,0,0,0,.051-.506,1.216,1.216,0,0,1-.07-.167.929.929,0,0,1,.165-.119q.405-.173.815-.333a4.9,4.9,0,0,0,1.022-.439.93.93,0,0,0,.168-1.446,1.216,1.216,0,0,0-1.244-.366,3.369,3.369,0,0,1-1.215.062.887.887,0,0,1-.378-.143.242.242,0,0,1-.121-.263,1.946,1.946,0,0,1,.078-.259.511.511,0,0,0,.062-.242,1.3,1.3,0,0,1,.216-.818,2.112,2.112,0,0,0,.211-.768.649.649,0,0,0-.116-.485.274.274,0,0,1-.072-.151,1.42,1.42,0,0,0-.2-.64,1.366,1.366,0,0,0-.79-.749.207.207,0,0,0-.224.03.627.627,0,0,0-.153.178,2.564,2.564,0,0,0-.252.738,1.123,1.123,0,0,0,.022.5,1.518,1.518,0,0,1,.058.633,5.315,5.315,0,0,0-.038.566c0,.108-.011.215-.021.323-.015.157-.034.314-.049.472-.008.089-.009.179-.016.315a1.144,1.144,0,0,0-1.2-.135c-.021.025-.044.05-.064.077s-.031.062-.052.087a1.028,1.028,0,0,0-.158,1.059,1.3,1.3,0,0,0,1.049.911.93.93,0,0,1,.437.157c.019.237.053.463.051.688,0,.286-.029.574-.4.677a.557.557,0,0,0-.274-.257.877.877,0,0,1-.216-.161,9.543,9.543,0,0,0-.958-.883.82.82,0,0,1-.347-.486c-.015-.065-.062-.124-.076-.189a.888.888,0,0,0-.5-.564.491.491,0,0,0-.426-.048.45.45,0,0,0-.275.358c-.064.289-.051.586-.128.871,0,.014,0,.027,0,.041a5.627,5.627,0,0,0,.4,1.564.32.32,0,0,0,.044.078,6.993,6.993,0,0,0,.5.614,4.472,4.472,0,0,0,1.125.806c.1.051.259.206.353.265a1.148,1.148,0,0,0,.761.116l.075-.01c.079.34.049.428-.215.574-.2.109-.4.2-.605.3-.131.067-.266.128-.39.206a11.3,11.3,0,0,1-1.176.616,1.246,1.246,0,0,1-.393.122c-.249.028-.471.155-.724.168a1.615,1.615,0,0,1-.292.041c-.191-.018-.554-.192-.744-.184-.285.011-.463.121-.756.147a.932.932,0,0,0-.835.958,2.107,2.107,0,0,0,.1.7,1.863,1.863,0,0,0,.746,1.061c.158.217.417.215.639.267.379.09.772.119,1.155.189a2.209,2.209,0,0,1,.267.079c.22.07.454.069.674.137a1.066,1.066,0,0,0,.269.04.392.392,0,0,0,.375-.183,2.187,2.187,0,0,0,.35-.725c.038.013.065.013.073.026a.5.5,0,0,0,.431.227,5.924,5.924,0,0,1,.7.1.266.266,0,0,1,.151.12.428.428,0,0,1,.048.2c.016.3.024.6.032.9.012.437.011,1.153,0,1.59-.008.257-.018.514-.048.771a.853.853,0,0,0,0,.17.65.65,0,0,1-.077.395.506.506,0,0,0-.049.3,2.271,2.271,0,0,1-.007.61,2.821,2.821,0,0,0,0,.846,2.21,2.21,0,0,0,.254.843,1.007,1.007,0,0,0,.255.356,2.373,2.373,0,0,1,.33.34,1.155,1.155,0,0,0,.419.339.341.341,0,0,0,.383-.031.78.78,0,0,0,.285-.414,2.006,2.006,0,0,0,.084-.571,1.106,1.106,0,0,1,.016-.271,1.923,1.923,0,0,0-.019-.9,1.142,1.142,0,0,1-.008-.133.542.542,0,0,0-.043-.192,2.092,2.092,0,0,1-.235-.6,1.35,1.35,0,0,1-.081-.532.579.579,0,0,0-.027-.167,3.613,3.613,0,0,1-.056-.368c-.013-.238-.024-.478-.016-.716.014-.443.048-.885.063-1.328s.012-.864.026-1.3c.006-.181.034-.362.054-.542a.32.32,0,0,1,.188-.269,3.155,3.155,0,0,1,.634-.222c.165-.031.332-.054.5-.094a1.67,1.67,0,0,1,.537-.071,1.685,1.685,0,0,0,.566-.106.2.2,0,0,0,.174-.184c0-.094.066-.136.142-.171a1.177,1.177,0,0,0,.14-.092c-.077-.144-.171-.269-.1-.428a.1.1,0,0,0-.015-.1c-.12-.1.015-.211-.019-.332a3.27,3.27,0,0,0-1.223-.339.279.279,0,0,1,.139-.283c.115-.071.224-.153.336-.231a5.332,5.332,0,0,1,.558-.386,7.791,7.791,0,0,1,1.169-.546.909.909,0,0,0,.625-.523A.767.767,0,0,0,269.056,153.985ZM264.9,151a.349.349,0,0,1,.422.142,1.246,1.246,0,0,1-.573.476A.6.6,0,0,1,264.9,151Zm-1.559,5.706c0,.124-.019.248-.032.4-.1.071-.2.158-.317.227-.231.14-.471.264-.7.406a2.066,2.066,0,0,0-.287.239.461.461,0,0,0-.076.112c-.054.091-.2.06-.235.179a2.407,2.407,0,0,1-.136.286,3.877,3.877,0,0,1-1.327-.707,1.8,1.8,0,0,1,.517-.481,8.153,8.153,0,0,1,1.019-.544,2.327,2.327,0,0,0,.321-.191,1.752,1.752,0,0,1,1.232-.286C263.393,156.46,263.344,156.586,263.342,156.707Zm2.276-.936c-.192.157-.394.3-.59.454a.52.52,0,0,1-.316.124,1.275,1.275,0,0,1-.064-.188.592.592,0,0,1,.351-.749c.221-.086.445-.163.669-.24.117-.04.236-.074.356-.1a1.281,1.281,0,0,1,.223,0A3.49,3.49,0,0,1,265.618,155.771Z" transform="translate(-140.774 -2.251)"/><path class="a" d="M412.55,157.768a4.73,4.73,0,0,0-.372-.483.743.743,0,0,0-.562-.272,2.857,2.857,0,0,1-.337-.039c-.144-.026-.286-.063-.43-.1l-.332-.075c-.2-.043-.4-.1-.6-.124-.269-.036-.543-.033-.81-.08a8.478,8.478,0,0,0-1.526-.108c-.113,0-.226-.016-.339-.026-.157-.014-.315-.035-.473-.043-.193-.01-.387,0-.58-.014s-.361-.031-.543-.038c-.282-.012-.565-.016-.832-.024-.068-.107-.012-.171.026-.239a.694.694,0,0,0,0-.852.349.349,0,0,1-.042-.11c.023-.034.032-.06.049-.07a6.289,6.289,0,0,0,1.087-.752,1.257,1.257,0,0,1,.173-.108c.115-.073.227-.15.343-.222a2.276,2.276,0,0,1,.322-.186c.445-.183.307-.112.509-.532a.742.742,0,0,0,.06-.159.628.628,0,0,0-.452-.791.64.64,0,0,0-.457.03c-.335.163-.688.287-1.035.424-.1.04-.18.085-.2.209a.187.187,0,0,1-.1.128,3.173,3.173,0,0,1-.388.114c-.058.015-.113,0-.15-.09l.29-.819a2.864,2.864,0,0,1,.638-.2,4.731,4.731,0,0,0,1.216-.515,1.513,1.513,0,0,0,.51-.7,5.214,5.214,0,0,1,.127-.6c.013-.026,0-.066-.008-.1-.011-.078-.027-.156-.036-.235a1.761,1.761,0,0,0-.54-1.246.465.465,0,0,0-.348-.245,2.048,2.048,0,0,1-.225-.079.984.984,0,0,0-.958.177,2.269,2.269,0,0,0-.585.566.517.517,0,0,1-.182.15c-.128.072-.269.122-.394.2-.192.119-.417.166-.6.3-.4.294-.754.655-1.183.915a.176.176,0,0,0-.055.04,8.363,8.363,0,0,1-.694.7c-.158.178-.346.33-.5.509-.3.34-.713.568-.928.984-.275.286-.549.575-.828.858a.527.527,0,0,0-.11.2.523.523,0,0,1-.316.366.158.158,0,0,0-.084.047c-.1.151-.24.267-.335.412a5.129,5.129,0,0,1-.564.676,1.473,1.473,0,0,0-.227.393,14.413,14.413,0,0,1,1.443-1.212c.054-.04.123-.107.173-.1.182.036.264-.1.377-.185.136-.1.258-.226.4-.314a6,6,0,0,0,.987-.522c.023-.021.064-.021.1-.034a2.454,2.454,0,0,0,.277-.121.845.845,0,0,1,.284-.1,3.46,3.46,0,0,0,.657-.17,1.881,1.881,0,0,1,.567-.1c.06.11.13.2.067.325a.637.637,0,0,0-.035.164,1.238,1.238,0,0,1-.6.9.673.673,0,0,0-.161.124,2.255,2.255,0,0,1-.67.46,13.186,13.186,0,0,1-2.045.913,5.3,5.3,0,0,0-1.495.724.478.478,0,0,1-.181.092,1.164,1.164,0,0,0-.369.17.67.67,0,0,1-.486.09c-.141.116-.278.236-.422.345a.287.287,0,0,0-.124.229c-.008.159-.022.318-.024.477a1.119,1.119,0,0,0,.546.892.154.154,0,0,0,.062.026c.155.033.309.072.465.095a.954.954,0,0,0,.961-.356.518.518,0,0,0,.066-.078c.11-.226.332-.329.517-.471a1.089,1.089,0,0,0,.135-.1,4.255,4.255,0,0,1,1.2-.825c.386-.2.746-.43,1.116-.65.2-.122.406-.251.613-.367a.788.788,0,0,1,.23-.034,1.78,1.78,0,0,1-.165.332,4.4,4.4,0,0,1-.818.8c-.184.132-.375.255-.553.4-.517.409-.963.9-1.446,1.341l-.6.554c-.342.315-.694.62-1.024.948-.257.255-.485.538-.729.805a3.7,3.7,0,0,0-.35.371c-.257.377-.639.65-.861,1.054a3.241,3.241,0,0,0-.527.7,5.841,5.841,0,0,0-.427.735c-.329.584-.673,1.16-1.01,1.74-.008.014,0,.039,0,.052l.132.061a.584.584,0,0,0-.189.352l.172-.13c.007.149.007.149-.187.286l.012-.007c-.038.081-.071.164-.114.242a.991.991,0,0,1-.147.226,1.172,1.172,0,0,1-.22.142c.023.051.039.092.059.131s-.018.115.079.134a11.156,11.156,0,0,1,.813-.9c.036-.044.067-.092.1-.135.133-.155.273-.3.4-.463q.246-.3.478-.619c.06-.082.092-.183.148-.267a19.066,19.066,0,0,1,1.756-2.034c.149-.169.313-.325.472-.486s.336-.338.5-.506a2.963,2.963,0,0,1,.365-.355,2.9,2.9,0,0,0,.573-.579,1.052,1.052,0,0,1,.337-.282,1.609,1.609,0,0,0,.3-.223c.249-.215.495-.434.741-.651.085-.075.173-.146.252-.227a8.109,8.109,0,0,1,1.567-1.3,2,2,0,0,1,.344-.22.5.5,0,0,1,.112.421c-.012.4-.032.794-.03,1.19a.75.75,0,0,1-.105.421c-.042.067-.075.14-.117.207a2.836,2.836,0,0,1-.688.837,3.39,3.39,0,0,0-.541.561,2.845,2.845,0,0,0-.3.571,3.251,3.251,0,0,0-.387,1.119c-.034.258-.087.513-.118.772-.021.168-.016.339-.027.508a4.565,4.565,0,0,1-.045.474,1.483,1.483,0,0,0-.013.405,4.706,4.706,0,0,0,.144.627.973.973,0,0,0,.359.633.288.288,0,0,1,.114.2.806.806,0,0,0,.644.666c.118.034.237.063.364.1a1.027,1.027,0,0,1,.878-.052c.033.008.067.009.1.014a1.485,1.485,0,0,1,.861.438.673.673,0,0,0,.132.107,2.182,2.182,0,0,0,1.3.288.55.55,0,0,0,.417-.2c.044-.052.089-.1.132-.155a3.006,3.006,0,0,0,.5-.924,6.9,6.9,0,0,0,.234-.674,2.564,2.564,0,0,1,.133-.694.054.054,0,0,0,0-.033,2.187,2.187,0,0,1,.017-.644,2.45,2.45,0,0,0-.019-.441c-.036-.326-.083-.651-.121-.977s-.049-.636-.106-.949a7.093,7.093,0,0,1-.042-1.223,1.413,1.413,0,0,1,.037-.235,2.922,2.922,0,0,0,.059-.371,1.281,1.281,0,0,0-.483-1.2,2.121,2.121,0,0,1-.354-.256c-.168-.188-.432-.2-.609-.369-.031-.029-.108-.007-.164-.011a.546.546,0,0,1-.255-.038,2.532,2.532,0,0,1-.4-.261c-.226-.245-.174-.466-.073-.92.139-.05.265.032.385.074a2.076,2.076,0,0,0,.7.106c.213,0,.426.018.639.032a1.314,1.314,0,0,0,.2.057c.2.014.934.184,1.138.22a1.983,1.983,0,0,0,.238.016c.385.022.771.044,1.156.068.068,0,.135.021.2.03.27.036.538.084.809.1.475.035.951.053,1.427.078.045,0,.09.008.135.015.28.041.56.085.841.124a.5.5,0,0,0,.17,0,.449.449,0,0,0,.37-.259,1.566,1.566,0,0,1,.111-.21A.759.759,0,0,0,412.55,157.768Zm-8.067,6.539c.052.245.153.416.106.589a.4.4,0,0,0-.014.134,3.459,3.459,0,0,1-.255,1.285c-.006.02-.028.035-.062.074a1.7,1.7,0,0,1-.281,0c-.234-.032-.465-.081-.7-.118-.134-.022-.269-.036-.4-.051a.336.336,0,0,1-.263-.189l-.343-.532c-.041-.015-.085-.162-.084-.207a2.979,2.979,0,0,1,.15-1.331h.808c.034,0,.067,0,.1,0l1.011.152A.268.268,0,0,1,404.484,164.307Zm-.313-2.93c.032.053.07.087.075.125q.051.422.089.845a.446.446,0,0,1-.044.142c-.081,0-.159,0-.235-.012a3.475,3.475,0,0,0-.437-.059,1.92,1.92,0,0,1-.993-.31.8.8,0,0,1-.438-.685c.045-.052.085-.107.133-.154a.76.76,0,0,1,.114-.077,2.636,2.636,0,0,0,.829.377.629.629,0,0,0,.526-.034A3.777,3.777,0,0,1,404.171,161.377Z" transform="translate(-243.826 -4.74)"/></g></g></svg>