<svg xmlns="http://www.w3.org/2000/svg" width="182.308" height="142.001" viewBox="0 0 182.308 142.001"><defs><style>.a{fill:#fff;}.b{fill:#e50019;}</style></defs><g transform="translate(0 0)"><g transform="translate(4.478)"><g transform="translate(49.851)"><path class="a" d="M571.119,65.718c-3.631-.4-4.851,4.963-5.608,8-.794,3.186-6.293,4.625-8.647,7.85-2.885,3.953-2.284,8.2-5.026,10.579-4.142,3.587-7.728,3.673-5.715,7.833L524.537,84.234c-2.013-4.161,1.574-4.248,5.715-7.834,2.742-2.374,2.141-6.626,5.026-10.579,2.354-3.225,7.853-4.663,8.647-7.85.757-3.037,1.977-8.4,5.608-8Z" transform="translate(-523.143 -49.124)"/><path class="b" d="M545.946,100.627a.823.823,0,0,1-.486-.158L523.876,84.721a.822.822,0,0,1-.255-.306c-1.746-3.609.3-4.931,2.67-6.461a27.421,27.421,0,0,0,3.248-2.353c1.249-1.082,1.727-2.69,2.281-4.553a18.106,18.106,0,0,1,2.618-5.889,16.463,16.463,0,0,1,4.522-3.751c1.866-1.211,3.628-2.355,3.992-3.813l.067-.271c.819-3.3,2.18-8.822,6.432-8.348a.813.813,0,0,1,.393.153l21.585,15.748a.823.823,0,0,1-.577,1.483c-2.784-.307-3.96,4.331-4.65,7.1l-.068.277c-.521,2.088-2.547,3.4-4.694,4.795a15.339,15.339,0,0,0-4.088,3.34,16.551,16.551,0,0,0-2.37,5.388c-.6,2.023-1.169,3.933-2.781,5.329a29.208,29.208,0,0,1-3.432,2.491c-2.389,1.543-3.193,2.063-2.082,4.362a.822.822,0,0,1-.741,1.181Zm-20.93-17.111,19.535,14.252c-.007-1.916,1.57-2.935,3.324-4.067a27.469,27.469,0,0,0,3.247-2.353c1.25-1.082,1.728-2.691,2.281-4.554a18.122,18.122,0,0,1,2.619-5.889,16.486,16.486,0,0,1,4.521-3.751c1.867-1.211,3.628-2.354,3.992-3.812l.069-.276c.661-2.662,1.683-6.77,4.28-8.007L549.064,50.6c-2.654-.074-3.775,4.415-4.447,7.123l-.068.272c-.521,2.088-2.548,3.4-4.694,4.795a15.336,15.336,0,0,0-4.087,3.341,16.51,16.51,0,0,0-2.371,5.388c-.6,2.022-1.169,3.932-2.781,5.328a29.084,29.084,0,0,1-3.433,2.492C524.859,80.837,524.035,81.37,525.017,83.516Z" transform="translate(-522.967 -48.947)"/></g><g transform="translate(81.201 1.896)"><line class="a" y1="11.4" x2="8.317" transform="translate(0.823 0.823)"/><path class="b" d="M561.874,64.3a.823.823,0,0,1-.664-1.308l8.317-11.4a.823.823,0,0,1,1.329.971l-8.317,11.4A.821.821,0,0,1,561.874,64.3Z" transform="translate(-561.052 -51.251)"/></g><g transform="translate(69.921 20.778)"><line class="a" y1="7.978" x2="5.821" transform="translate(0.823 0.823)"/><path class="b" d="M548.171,83.814a.824.824,0,0,1-.664-1.309l5.821-7.978a.823.823,0,0,1,1.33.971l-5.821,7.978A.82.82,0,0,1,548.171,83.814Z" transform="translate(-547.349 -74.189)"/></g><g transform="translate(0 35.573)"><line class="a" y1="89.023" x2="64.949" transform="translate(0.823 0.823)"/><path class="b" d="M463.228,182.831a.822.822,0,0,1-.663-1.308L527.513,92.5a.823.823,0,1,1,1.329.971l-64.948,89.023A.821.821,0,0,1,463.228,182.831Z" transform="translate(-462.406 -92.162)"/></g></g><g transform="translate(21.133 14.447)"><g transform="translate(66.247)"><path class="a" d="M613.576,87.176c-3.489-1.08-5.7,3.964-7.01,6.805-1.378,2.98-7.049,3.361-9.967,6.086-3.575,3.341-3.783,7.631-6.922,9.448-4.741,2.746-8.28,2.158-7.084,6.621L564.348,96.618c-1.2-4.464,2.343-3.876,7.083-6.621,3.14-1.818,3.347-6.107,6.923-9.448,2.917-2.725,8.589-3.107,9.967-6.087,1.315-2.841,3.52-7.884,7.01-6.805Z" transform="translate(-563.295 -66.676)"/><path class="b" d="M582.418,116.781a.822.822,0,0,1-.6-.261L563.57,97a.821.821,0,0,1-.193-.349c-1.037-3.873,1.22-4.787,3.834-5.845a27.541,27.541,0,0,0,3.632-1.7c1.43-.829,2.2-2.32,3.1-4.046a18.1,18.1,0,0,1,3.677-5.292,16.484,16.484,0,0,1,5.145-2.835c2.06-.84,4.006-1.632,4.637-3l.116-.251c1.423-3.088,3.809-8.254,7.884-6.994a.831.831,0,0,1,.358.225L614,86.435a.823.823,0,0,1-.845,1.348c-2.7-.837-4.7,3.513-5.9,6.111l-.117.254c-.9,1.953-3.141,2.864-5.511,3.829a15.328,15.328,0,0,0-4.641,2.514,16.543,16.543,0,0,0-3.34,4.847c-.971,1.874-1.887,3.643-3.732,4.713a29.126,29.126,0,0,1-3.838,1.8c-2.636,1.068-3.523,1.427-2.863,3.894a.822.822,0,0,1-.794,1.036Zm-17.5-20.75L581.429,113.7c.354-1.883,2.093-2.586,4.028-3.37a27.436,27.436,0,0,0,3.632-1.7c1.429-.828,2.2-2.319,3.1-4.045a18.083,18.083,0,0,1,3.677-5.292,16.489,16.489,0,0,1,5.145-2.837c2.06-.839,4.006-1.631,4.637-2.995l.116-.251c1.149-2.493,2.924-6.341,5.71-7.068L594.714,68.213c-2.6-.577-4.536,3.628-5.705,6.163l-.117.253c-.9,1.953-3.141,2.865-5.511,3.829a15.344,15.344,0,0,0-4.641,2.513,16.534,16.534,0,0,0-3.339,4.847c-.971,1.874-1.887,3.644-3.734,4.713a29.052,29.052,0,0,1-3.838,1.8C565.265,93.372,564.355,93.74,564.917,96.031Z" transform="translate(-563.119 -66.497)"/></g><g transform="translate(100.647 4.643)"><line class="a" y1="9.637" x2="10.309" transform="translate(0.823 0.823)"/><path class="b" d="M605.732,83.42A.823.823,0,0,1,605.171,82l10.309-9.637a.823.823,0,0,1,1.124,1.2L606.294,83.2A.821.821,0,0,1,605.732,83.42Z" transform="translate(-604.91 -72.138)"/></g><g transform="translate(86.667 20.604)"><line class="a" y1="6.744" x2="7.215" transform="translate(0.823 0.823)"/><path class="b" d="M588.749,99.918a.822.822,0,0,1-.562-1.424l7.215-6.744a.823.823,0,1,1,1.124,1.2L589.31,99.7A.818.818,0,0,1,588.749,99.918Z" transform="translate(-587.926 -91.527)"/></g><g transform="translate(0 33.11)"><line class="a" y1="75.251" x2="80.503" transform="translate(0.823 0.822)"/><path class="b" d="M483.463,183.617a.823.823,0,0,1-.562-1.425l80.5-75.25a.823.823,0,1,1,1.124,1.2l-80.5,75.251A.815.815,0,0,1,483.463,183.617Z" transform="translate(-482.64 -106.721)"/></g></g><g transform="translate(0 25.735)"><g transform="translate(62.495)"><path class="a" d="M582.936,100c-3.535-.919-5.509,4.22-6.693,7.117-1.241,3.04-6.889,3.679-9.679,6.535-3.42,3.5-3.433,7.794-6.485,9.754-4.611,2.958-8.173,2.532-6.775,6.938l-19.116-18.668c-1.4-4.406,2.163-3.979,6.775-6.938,3.053-1.959,3.065-6.254,6.485-9.754,2.791-2.856,8.438-3.5,9.68-6.535,1.183-2.9,3.157-8.037,6.692-7.117Z" transform="translate(-533.063 -80.389)"/><path class="b" d="M553.129,130.983a.825.825,0,0,1-.575-.234l-19.115-18.668a.821.821,0,0,1-.21-.34c-1.213-3.821,1-4.838,3.564-6.014a27.424,27.424,0,0,0,3.55-1.865c1.391-.892,2.094-2.416,2.909-4.181a18.083,18.083,0,0,1,3.433-5.455,16.465,16.465,0,0,1,5.009-3.067c2.021-.932,3.928-1.813,4.5-3.2l.106-.26c1.282-3.148,3.428-8.417,7.556-7.343a.82.82,0,0,1,.367.208l19.116,18.667a.823.823,0,0,1-.782,1.385c-2.738-.71-4.541,3.725-5.617,6.375l-.105.258c-.814,1.991-3.008,3-5.331,4.076a15.332,15.332,0,0,0-4.522,2.722,16.538,16.538,0,0,0-3.114,4.994c-.885,1.916-1.72,3.726-3.515,4.877a29.124,29.124,0,0,1-3.752,1.976c-2.585,1.186-3.456,1.586-2.683,4.02a.823.823,0,0,1-.784,1.072Zm-18.39-19.932,17.3,16.895c.268-1.9,1.973-2.679,3.87-3.551a27.4,27.4,0,0,0,3.55-1.864c1.39-.892,2.094-2.417,2.908-4.182a18.122,18.122,0,0,1,3.433-5.454,16.48,16.48,0,0,1,5.01-3.067c2.02-.933,3.928-1.813,4.5-3.2l.1-.256c1.034-2.542,2.632-6.468,5.382-7.321L563.238,81.9c-2.622-.446-4.364,3.829-5.416,6.413l-.107.262c-.813,1.992-3.007,3-5.331,4.076a15.333,15.333,0,0,0-4.522,2.723,16.537,16.537,0,0,0-3.114,4.993c-.884,1.916-1.72,3.726-3.515,4.878a29.336,29.336,0,0,1-3.752,1.976C534.965,108.377,534.073,108.787,534.739,111.051Z" transform="translate(-532.887 -80.21)"/></g><g transform="translate(96.257 3.982)"><line class="a" y1="10.096" x2="9.86" transform="translate(0.823 0.823)"/><path class="b" d="M574.725,96.79a.824.824,0,0,1-.589-1.4L584,85.295a.824.824,0,0,1,1.179,1.151l-9.86,10.1A.821.821,0,0,1,574.725,96.79Z" transform="translate(-573.903 -85.047)"/></g><g transform="translate(82.886 20.704)"><line class="a" y1="7.066" x2="6.9" transform="translate(0.823 0.823)"/><path class="b" d="M558.482,114.074a.824.824,0,0,1-.589-1.4l6.9-7.066a.824.824,0,0,1,1.179,1.151l-6.9,7.066A.823.823,0,0,1,558.482,114.074Z" transform="translate(-557.659 -105.362)"/></g><g transform="translate(0 33.807)"><line class="a" y1="78.841" x2="76.991" transform="translate(0.823 0.823)"/><path class="b" d="M457.79,201.766a.823.823,0,0,1-.589-1.4l76.991-78.841a.823.823,0,0,1,1.179,1.15L458.38,201.518A.822.822,0,0,1,457.79,201.766Z" transform="translate(-456.967 -121.28)"/></g></g></g><g transform="translate(79.219 89.291)"><path class="b" d="M562.386,177.185c-3.565,0-7.215-.6-8.618-4.322-1.634-4.33.611-7.271,2.59-9.865a23.437,23.437,0,0,0,1.669-2.375c.931-2.058,1.916-3.071,3.057-3.117,1.274-.04,2.072,1.087,2.623,2.023,1.154-1.735,2.31-2.138,3.152-2.106.807.015,1.915.416,2.962,2.067.552-.927,1.346-2.037,2.6-1.984,1.143.046,2.126,1.059,3.1,3.19a24.445,24.445,0,0,0,1.631,2.3c1.98,2.594,4.224,5.535,2.591,9.866-1.749,4.641-6.88,4.424-11,4.25-.64-.026-1.271-.053-1.879-.063-.6.01-1.234.036-1.875.063C564.147,177.148,563.27,177.185,562.386,177.185Zm-1.225-18.035h-.011c-.068,0-.69.089-1.663,2.227A24.279,24.279,0,0,1,557.667,164c-1.887,2.474-3.67,4.81-2.359,8.286,1.332,3.532,5.542,3.356,9.608,3.186.66-.027,1.31-.054,1.931-.064h.026c.626.01,1.276.037,1.935.065,3.964.168,8.06.341,9.389-3.186,1.311-3.476-.472-5.812-2.359-8.286a25.048,25.048,0,0,1-1.784-2.547c-1.009-2.21-1.631-2.3-1.7-2.3h-.011c-.458,0-1.133,1.213-1.387,1.671-.355.637-.61,1.127-1.2,1.084l-.5-.011-.278-.491c-.672-1.482-1.45-2.323-2.149-2.336h-.016c-.713,0-1.545.85-2.286,2.335l-.221.445-.552.058c-.589.04-.85-.447-1.2-1.084C562.293,160.363,561.619,159.15,561.161,159.15Z" transform="translate(-553.204 -157.421)"/></g><g transform="translate(54.677 107.524)"><path class="b" d="M532.573,199.334c-3.565,0-7.216-.6-8.62-4.322-1.632-4.331.612-7.272,2.592-9.866a23.446,23.446,0,0,0,1.667-2.374c.933-2.058,1.916-3.071,3.059-3.117,1.264-.059,2.071,1.087,2.623,2.023,1.133-1.7,2.278-2.106,3.1-2.106h.047c.807.015,1.916.416,2.962,2.067.552-.929,1.4-2.038,2.6-1.984,1.143.046,2.126,1.059,3.1,3.19a24.621,24.621,0,0,0,1.632,2.3c1.98,2.594,4.224,5.535,2.59,9.866-1.751,4.642-6.879,4.424-11,4.25-.64-.026-1.27-.053-1.878-.063-.605.01-1.234.036-1.876.063C534.334,199.3,533.456,199.334,532.573,199.334ZM531.348,181.3h-.011c-.068,0-.691.089-1.663,2.227a24.516,24.516,0,0,1-1.82,2.619c-1.888,2.473-3.67,4.809-2.361,8.286,1.333,3.532,5.542,3.355,9.609,3.186.661-.027,1.31-.054,1.932-.064h.026c.627.01,1.277.037,1.936.065,3.962.167,8.058.34,9.389-3.186,1.311-3.476-.472-5.812-2.359-8.286a25.046,25.046,0,0,1-1.784-2.547c-1.01-2.21-1.633-2.3-1.7-2.3h-.01c-.458,0-1.133,1.213-1.389,1.671-.354.637-.637,1.1-1.2,1.084l-.5-.011-.277-.491c-.673-1.481-1.452-2.322-2.15-2.335-.755-.02-1.555.837-2.3,2.335l-.221.444-.553.058c-.617.016-.849-.447-1.2-1.084C532.48,182.512,531.805,181.3,531.348,181.3Z" transform="translate(-523.39 -179.571)"/></g><g transform="translate(86.178 113.657)"><path class="b" d="M570.841,206.784c-3.566,0-7.216-.6-8.619-4.322-1.634-4.331.611-7.271,2.591-9.866a23.455,23.455,0,0,0,1.669-2.375c.932-2.058,1.915-3.071,3.058-3.117,1.264-.044,2.07,1.088,2.623,2.023,1.133-1.7,2.278-2.106,3.1-2.106h.047c.807.015,1.915.417,2.962,2.068.552-.927,1.353-2.039,2.6-1.984,1.143.046,2.126,1.059,3.1,3.19a24.432,24.432,0,0,0,1.631,2.3c1.98,2.595,4.224,5.535,2.591,9.866-1.75,4.641-6.88,4.424-11,4.251-.64-.027-1.271-.054-1.879-.064-.6.01-1.234.036-1.875.063C572.6,206.748,571.724,206.784,570.841,206.784Zm-1.226-18.035h-.01c-.068,0-.691.089-1.664,2.227a24.38,24.38,0,0,1-1.821,2.62c-1.888,2.473-3.671,4.809-2.359,8.285,1.331,3.532,5.54,3.357,9.608,3.186.661-.028,1.31-.055,1.931-.065h.026c.626.01,1.277.037,1.935.066,3.964.167,8.06.34,9.39-3.187,1.31-3.476-.472-5.812-2.36-8.285a25.286,25.286,0,0,1-1.784-2.548c-1.009-2.21-1.631-2.3-1.7-2.3H580.8c-.457,0-1.133,1.213-1.387,1.671-.355.637-.624,1.1-1.2,1.085l-.5-.012-.278-.491c-.672-1.482-1.45-2.323-2.149-2.336h-.016c-.713,0-1.544.85-2.286,2.335l-.221.444-.553.058c-.6.012-.85-.447-1.2-1.084C570.747,189.962,570.073,188.75,569.616,188.75Z" transform="translate(-561.658 -187.021)"/></g><g transform="translate(145.883 25.933)"><g transform="translate(0.828 0.822)"><path class="a" d="M645.333,155.924c2.239,1.929,12.861,2.175,14.674,0s2.049-19.481,4.757-21.568c2.176-1.677,6.389-7.522,4.3-12.266-2.291-5.207,3.121-10.914-.227-16.191-2.307-3.637,2.043-9.378-.676-12.777-3.789-4.736-3.052-12.738-14.274-11.554-5.4.57-9.836,1.624-14.409,7.34-2.719,3.4-5.036,5.845-3.119,11.691,2.74,8.353-4.078,10.739.407,16.584,3.279,4.272-1.577,9.724,1.631,13.593C643.023,136.349,642.086,153.126,645.333,155.924Z" transform="translate(-635.196 -81.45)"/></g><path class="b" d="M652.91,158.112c-3.368,0-6.932-.57-8.291-1.742h0c-1.739-1.5-2.325-5.642-3.065-10.889-.766-5.411-1.632-11.545-3.964-14.358-1.832-2.208-1.4-4.769-.978-7.245.392-2.316.762-4.5-.672-6.373-2.6-3.38-1.77-5.81-.9-8.382.782-2.3,1.591-4.685.357-8.446-1.961-5.979.272-8.751,2.858-11.961l.4-.5c4.9-6.128,9.678-7.087,14.967-7.646,8.755-.927,10.853,3.659,12.694,7.7a19.357,19.357,0,0,0,2.308,4.155c1.636,2.046,1.119,4.651.617,7.171-.429,2.155-.834,4.191.111,5.679,1.971,3.107,1.216,6.254.485,9.3-.6,2.481-1.158,4.825-.2,7,2.235,5.078-1.934,11.232-4.552,13.25-1.239.955-2.033,7.268-2.613,11.877-.657,5.22-1.105,8.474-2.015,9.567-.779.934-2.558,1.522-5.288,1.748C654.449,158.082,653.683,158.112,652.91,158.112Zm2.937-76.018a19.707,19.707,0,0,0-2.049.115c-4.914.519-9.348,1.406-13.852,7.036l-.4.5c-2.472,3.07-4.258,5.287-2.576,10.416a13.412,13.412,0,0,1-.364,9.489c-.822,2.42-1.415,4.169.643,6.85,1.873,2.441,1.4,5.209.99,7.65-.391,2.3-.728,4.293.621,5.919,2.63,3.172,3.531,9.55,4.327,15.178.61,4.316,1.24,8.777,2.509,9.871h0c1.125.969,5.578,1.568,9.345,1.257,2.527-.209,3.8-.737,4.159-1.161.648-.778,1.2-5.18,1.647-8.718.882-7.008,1.583-11.7,3.241-12.975,1.916-1.477,5.934-7,4.051-11.283-1.182-2.685-.528-5.412.106-8.05.681-2.835,1.323-5.513-.275-8.031-1.3-2.046-.808-4.5-.335-6.882.447-2.249.869-4.373-.29-5.821a20.891,20.891,0,0,1-2.52-4.5C663.156,85.3,661.7,82.094,655.847,82.094Z" transform="translate(-634.19 -80.451)"/><g transform="translate(15.164 15.296)"><path class="b" d="M655.061,150.2a.812.812,0,0,1-.228-.033.824.824,0,0,1-.563-1.019c1.26-4.364.953-21.47.57-25.936-.141-1.646-.526-5.486-.933-9.55-.759-7.584-1.3-13.014-1.3-13.81a.823.823,0,1,1,1.646,0c0,.776.714,7.912,1.287,13.646.407,4.071.793,7.917.934,9.574.345,4.021.8,21.6-.628,26.534A.824.824,0,0,1,655.061,150.2Z" transform="translate(-652.612 -99.033)"/></g><g transform="translate(7.189 29.524)"><path class="b" d="M649.819,143.339a.824.824,0,0,1-.78-.562,34.178,34.178,0,0,1-1.845-12.709c.008-.522.017-1,.011-1.446-.031-2.325-2.655-9.007-4.12-10.992a.823.823,0,0,1,1.325-.977c1.656,2.245,4.4,9.282,4.441,11.947.007.46,0,.957-.011,1.5a32.718,32.718,0,0,0,1.759,12.157.826.826,0,0,1-.78,1.086Z" transform="translate(-642.924 -116.317)"/></g><g transform="translate(22.707 20.098)"><path class="b" d="M662.6,135.6a.824.824,0,0,1-.781-1.084c.192-.574.412-1.2.649-1.866,1.169-3.312,2.772-7.848,2.627-11.8a42.958,42.958,0,0,0-.771-5.518c-.772-4.26-1.5-8.283.278-10.206a.823.823,0,1,1,1.208,1.119c-1.22,1.319-.5,5.29.134,8.793a43.873,43.873,0,0,1,.8,5.751c.157,4.262-1.506,8.969-2.72,12.407-.232.656-.45,1.273-.639,1.838A.823.823,0,0,1,662.6,135.6Z" transform="translate(-661.776 -104.867)"/></g></g><g transform="translate(133.984 44.89)"><g transform="translate(0.828 0.821)"><path class="a" d="M630.877,178.953c2.24,1.93,12.861,2.175,14.674,0s2.049-19.48,4.758-21.568c2.175-1.676,6.389-7.521,4.3-12.266-2.29-5.206,3.121-10.913-.226-16.191-2.307-3.636,2.042-9.378-.677-12.776-3.788-4.736-3.052-12.738-14.273-11.555-5.4.57-9.836,1.624-14.409,7.341-2.718,3.4-5.036,5.844-3.119,11.69,2.74,8.354-4.078,10.739.408,16.584,3.279,4.273-1.577,9.725,1.631,13.594C628.567,159.378,627.631,176.155,630.877,178.953Z" transform="translate(-620.741 -104.479)"/></g><path class="b" d="M638.454,181.141c-3.368,0-6.932-.569-8.291-1.741h0c-1.739-1.5-2.324-5.642-3.065-10.888-.765-5.412-1.632-11.546-3.964-14.358-1.832-2.208-1.4-4.769-.978-7.245.392-2.316.762-4.5-.672-6.373-2.595-3.381-1.769-5.81-.9-8.383.782-2.3,1.592-4.685.358-8.446-1.962-5.979.272-8.751,2.857-11.962l.4-.5c4.9-6.127,9.678-7.087,14.966-7.645,8.755-.927,10.853,3.659,12.694,7.7a19.357,19.357,0,0,0,2.308,4.155c1.636,2.046,1.119,4.652.617,7.171-.428,2.156-.834,4.192.112,5.68,1.971,3.107,1.215,6.254.485,9.3-.6,2.482-1.159,4.825-.2,7,2.235,5.078-1.933,11.231-4.552,13.25-1.239.955-2.033,7.268-2.613,11.877-.656,5.22-1.1,8.474-2.015,9.567-.778.933-2.557,1.522-5.288,1.748C639.993,181.112,639.228,181.141,638.454,181.141Zm2.938-76.017a19.489,19.489,0,0,0-2.05.115c-4.913.518-9.348,1.405-13.852,7.036l-.4.5c-2.472,3.069-4.258,5.286-2.576,10.416a13.413,13.413,0,0,1-.363,9.489c-.822,2.42-1.416,4.168.642,6.85,1.873,2.44,1.4,5.208.99,7.65-.39,2.3-.728,4.292.621,5.919,2.63,3.172,3.531,9.551,4.327,15.179.61,4.315,1.241,8.777,2.51,9.871h0c1.124.97,5.577,1.569,9.344,1.257,2.528-.208,3.8-.736,4.159-1.161.648-.777,1.2-5.18,1.647-8.718.882-7.008,1.584-11.7,3.241-12.975,1.916-1.477,5.934-7,4.051-11.282-1.181-2.685-.527-5.412.106-8.051.681-2.834,1.324-5.512-.275-8.031-1.3-2.045-.808-4.5-.335-6.882.447-2.249.87-4.373-.289-5.821a20.9,20.9,0,0,1-2.521-4.5C648.7,108.33,647.241,105.124,641.391,105.124Z" transform="translate(-619.735 -103.481)"/><g transform="translate(15.163 15.295)"><path class="b" d="M640.606,173.234a.848.848,0,0,1-.229-.032.824.824,0,0,1-.562-1.02c1.26-4.364.952-21.47.57-25.935-.142-1.646-.526-5.486-.933-9.551-.759-7.584-1.3-13.013-1.3-13.81a.823.823,0,0,1,1.646,0c0,.776.714,7.912,1.287,13.646.408,4.071.793,7.916.934,9.574.345,4.021.8,21.6-.628,26.533A.823.823,0,0,1,640.606,173.234Z" transform="translate(-638.156 -122.062)"/></g><g transform="translate(7.189 29.523)"><path class="b" d="M635.363,166.368a.825.825,0,0,1-.78-.562,34.176,34.176,0,0,1-1.845-12.708c.009-.522.017-1,.012-1.447-.031-2.325-2.656-9.007-4.12-10.992a.823.823,0,1,1,1.324-.978c1.657,2.246,4.406,9.283,4.442,11.947.006.459,0,.957-.011,1.5a32.706,32.706,0,0,0,1.76,12.157.824.824,0,0,1-.781,1.085Z" transform="translate(-628.468 -139.347)"/></g><g transform="translate(22.707 20.098)"><path class="b" d="M648.143,158.632a.824.824,0,0,1-.78-1.084c.191-.574.412-1.2.648-1.866,1.17-3.312,2.772-7.849,2.627-11.8a42.913,42.913,0,0,0-.77-5.519c-.773-4.259-1.5-8.283.278-10.2a.822.822,0,1,1,1.207,1.118c-1.22,1.319-.5,5.29.135,8.794a44.028,44.028,0,0,1,.794,5.751c.158,4.263-1.506,8.97-2.719,12.407-.233.657-.45,1.273-.64,1.839A.823.823,0,0,1,648.143,158.632Z" transform="translate(-647.32 -127.897)"/></g></g><g transform="translate(122.59 64.34)"><g transform="translate(0.828 0.822)"><path class="a" d="M617.035,202.582c2.239,1.93,12.861,2.175,14.674,0s2.049-19.481,4.758-21.568c2.175-1.677,6.389-7.522,4.3-12.267-2.291-5.206,3.121-10.913-.227-16.19-2.307-3.637,2.043-9.378-.676-12.777-3.788-4.736-3.052-12.738-14.273-11.554-5.4.57-9.837,1.624-14.409,7.34-2.719,3.4-5.036,5.845-3.119,11.691,2.74,8.353-4.078,10.739.407,16.583,3.28,4.273-1.577,9.725,1.632,13.594C614.725,183.007,613.788,199.784,617.035,202.582Z" transform="translate(-606.898 -128.108)"/></g><path class="b" d="M624.612,204.77c-3.368,0-6.932-.57-8.291-1.742h0c-1.739-1.5-2.324-5.642-3.065-10.889-.766-5.411-1.632-11.545-3.964-14.358-1.831-2.208-1.4-4.769-.978-7.245.392-2.316.762-4.5-.672-6.373-2.6-3.38-1.77-5.81-.9-8.382.782-2.3,1.592-4.685.358-8.446-1.962-5.979.272-8.751,2.857-11.961l.4-.5c4.9-6.128,9.677-7.087,14.966-7.646,8.755-.927,10.853,3.659,12.694,7.7a19.363,19.363,0,0,0,2.308,4.156c1.636,2.046,1.119,4.651.617,7.171-.429,2.155-.834,4.191.112,5.679,1.971,3.107,1.215,6.254.484,9.3-.6,2.481-1.158,4.825-.2,7,2.235,5.078-1.933,11.231-4.552,13.25-1.239.955-2.033,7.268-2.613,11.877-.657,5.22-1.106,8.474-2.015,9.567-.778.934-2.558,1.522-5.288,1.748C626.151,204.74,625.385,204.77,624.612,204.77Zm2.937-76.018a19.708,19.708,0,0,0-2.049.115c-4.914.519-9.348,1.406-13.852,7.036l-.4.5c-2.472,3.07-4.258,5.287-2.576,10.416a13.407,13.407,0,0,1-.364,9.489c-.822,2.42-1.415,4.169.643,6.85,1.873,2.441,1.4,5.209.99,7.65-.391,2.3-.728,4.293.621,5.919,2.63,3.172,3.531,9.55,4.327,15.178.61,4.315,1.24,8.777,2.509,9.871h0c1.125.97,5.578,1.569,9.345,1.258,2.527-.209,3.8-.737,4.159-1.161.648-.778,1.2-5.18,1.647-8.718.882-7.008,1.584-11.7,3.241-12.975,1.915-1.477,5.934-7,4.051-11.283-1.181-2.685-.527-5.412.106-8.05.681-2.835,1.323-5.513-.275-8.032-1.3-2.045-.808-4.5-.335-6.882.447-2.249.869-4.373-.29-5.821a20.891,20.891,0,0,1-2.52-4.5C634.858,131.959,633.4,128.752,627.549,128.752Z" transform="translate(-605.892 -127.109)"/><g transform="translate(15.164 15.296)"><path class="b" d="M626.763,196.863a.843.843,0,0,1-.228-.033.824.824,0,0,1-.563-1.019c1.261-4.364.953-21.47.57-25.936-.142-1.646-.526-5.486-.933-9.551-.759-7.583-1.3-13.013-1.3-13.809a.823.823,0,1,1,1.646,0c0,.776.714,7.911,1.287,13.646.407,4.071.793,7.916.934,9.574.345,4.021.8,21.6-.628,26.534A.824.824,0,0,1,626.763,196.863Z" transform="translate(-624.314 -145.691)"/></g><g transform="translate(7.189 29.523)"><path class="b" d="M621.521,190a.824.824,0,0,1-.78-.561,34.178,34.178,0,0,1-1.845-12.709c.008-.522.017-1,.011-1.446-.031-2.325-2.655-9.007-4.119-10.992a.823.823,0,1,1,1.324-.977c1.657,2.245,4.4,9.282,4.441,11.947.007.46,0,.957-.011,1.5a32.718,32.718,0,0,0,1.759,12.157.823.823,0,0,1-.78,1.085Z" transform="translate(-614.626 -162.975)"/></g><g transform="translate(22.708 20.098)"><path class="b" d="M634.3,182.26a.824.824,0,0,1-.78-1.084c.191-.574.412-1.2.648-1.866,1.17-3.312,2.772-7.848,2.627-11.8a42.946,42.946,0,0,0-.77-5.518c-.772-4.26-1.5-8.283.278-10.206a.823.823,0,0,1,1.208,1.119c-1.22,1.319-.5,5.29.134,8.793a43.862,43.862,0,0,1,.8,5.751c.157,4.262-1.506,8.969-2.72,12.407-.232.656-.449,1.273-.639,1.838A.823.823,0,0,1,634.3,182.26Z" transform="translate(-633.478 -151.525)"/></g></g></svg>