<svg xmlns="http://www.w3.org/2000/svg" width="167.797" height="79.368" viewBox="0 0 167.797 79.368"><defs><style>.a{fill:none;}.a,.b{stroke:#e50019;stroke-linecap:round;stroke-linejoin:round;stroke-width:2px;}.b{fill:#fff;}</style></defs><g transform="translate(1.074 1.304)"><line class="a" y1="72.553" x2="136.8" transform="translate(28.436 0.76)"/><line class="a" y1="59.23" x2="136.241" transform="translate(29.166 14.897)"/><line class="a" y1="39.388" x2="146.688" transform="translate(18.548 31.141)"/><path class="b" d="M996.441,139.586s-2.385,14.587-10.274,15.573c-24.9,3.111-77.021,3.106-102.12,0-7.89-.976-10.274-15.573-10.274-15.573" transform="translate(-865.235 -80.425)"/><path class="b" d="M1000.226,138.344a5.482,5.482,0,0,0,2.851-5.781H863.47a5.482,5.482,0,0,0,2.851,5.781Z" transform="translate(-863.401 -79.184)"/><path class="a" d="M948.045,82.716c1.24,3.041-2.347,7.449-2.342,11.442.007,4.894,3,7.97,2.193,11.505" transform="translate(-877.955 -70.369)"/><path class="a" d="M959.268,67.716c-1.24,3.041,2.348,7.449,2.342,11.442-.007,4.894-3,7.97-2.192,11.505" transform="translate(-880.308 -67.716)"/><path class="a" d="M935.045,79.277c1.241,3.041-2.347,7.449-2.342,11.441.007,4.894,3,7.971,2.193,11.506" transform="translate(-875.656 -69.76)"/></g></svg>