<?xml version="1.0" encoding="utf-8"?>
<!-- Generator: Adobe Illustrator 26.0.1, SVG Export Plug-In . SVG Version: 6.00 Build 0)  -->
<svg version="1.1" id="Layer_1" xmlns="http://www.w3.org/2000/svg" xmlns:xlink="http://www.w3.org/1999/xlink" x="0px" y="0px"
	 viewBox="0 0 182.3 142" style="enable-background:new 0 0 182.3 142;" xml:space="preserve">
<style type="text/css">
	.st0{fill:none;stroke:#E50019;stroke-width:2;stroke-linecap:round;stroke-linejoin:round;}
</style>
<g transform="translate(0.998 1.021)">
	<path class="st0" d="M159.6,69.3c0,10.9-5.3,15.9-9.4,23.9c-3.4,6.6-4.5,15.6-8.1,22.1c-2.5,4.8-6.7,8.5-11.8,10.3
		c-5.4,2-8.6,1.4-13.8,3.9c-9.3,4.4-16.6,10.4-26.8,10.4c-13.8,0-16.6-6.3-24.8-10c-7.8-3.5-18.1-4.3-24.5-9.9
		c-8.7-7.5-7.8-19.3-12.2-29.9c-2.8-6.7-7.2-13.5-7.4-20.7c-0.3-9.9,7.2-18.3,11.1-27.4c2.7-6.1,3.4-13.2,7.3-18.6
		c4-5.9,10.4-9.9,17.5-11c4.1-0.7,8.2-1.7,12.1-3.2C73,7.6,79.5,2.6,83.8,1.1c2.6-0.7,5.3-1.1,8-1.1c1.9,0.1,6.2,0.7,7.9,1.6
		c10.2,5.3,10.6,6.7,19.2,9.9c7,2.6,17.4,3.7,23.4,12.2c4.5,6.2,4.1,14.7,7.2,21.7C153.1,53.7,159.6,60.4,159.6,69.3z M149.2,70.9
		c0.1-30.7-23.3-56.4-53.9-59.1v-0.2c-0.1,0.1-0.1,0.1-0.2,0.2c-1.5-0.1-3.1-0.2-4.7-0.2c-32.5,0-58.9,26.6-58.9,59.3
		s26.3,59.3,58.9,59.3c0.1,0,0.3,0,0.4,0C123,130,149.2,103.6,149.2,70.9L149.2,70.9z"/>
	<path class="st0" d="M90.3,11.6c1.6,0,3.1,0.1,4.7,0.2c-2.2,2-4.2,4.2-5.9,6.7c0,0-51.7,1.2-51.7,52.6c0,51.7,52.7,53.8,52.7,53.8
		l0.6,5.3v0.1c-0.1,0-0.3,0-0.4,0c-32.5,0-58.9-26.6-58.9-59.3S57.8,11.6,90.3,11.6z"/>
	<path class="st0" d="M95.2,11.8c30.6,2.7,54.1,28.4,53.9,59.1c0,32.6-26.1,59.1-58.4,59.3v-0.1c1.4-1.7,2.7-3.5,3.9-5.3
		c0,0,48.3-6.2,48.3-53.8S95,18.5,95,18.5L95.2,11.8z"/>
	<path class="st0" d="M84.6,52.6c1.4,3.5,2.9,6.9,4.6,10.2c2.3,4.3,10.5,20.6,12.3,31.4c1.7,10-0.8,21.1-6.9,30.6
		c-1.2,1.9-2.5,3.6-3.9,5.3l-0.6-5.3c4.5-6.6,7.3-14.2,8.1-22.1c0.7-7.7-1.4-18.4-7.7-32.3C84.9,58,84.6,52.6,84.6,52.6z"/>
	<path class="st0" d="M95.2,11.8L95,18.5c-0.8,1.2-4.8,2.8-8.3,12.5s-3.6,11.5-2.2,21.7c-4.7-14.1-2-20.7,0.4-26.5
		c2.3-5.4,5.7-10.3,10.1-14.3C95.1,11.8,95.1,11.8,95.2,11.8z"/>
</g>
</svg>
