<svg xmlns="http://www.w3.org/2000/svg" width="141.673" height="142.608" viewBox="0 0 141.673 142.608"><defs><style>.a{fill:none;stroke:#e50019;stroke-linecap:round;stroke-linejoin:round;stroke-width:2px;}</style></defs><g transform="translate(0.998 1.021)"><path class="a" d="M244.492,98.834c.023,10.956-5.327,16.02-9.48,23.991-3.447,6.621-4.531,15.64-8.128,22.177a21.282,21.282,0,0,1-11.852,10.328c-5.4,2.013-8.672,1.439-13.88,3.9-9.3,4.382-16.693,10.474-26.979,10.493-13.823.031-16.658-6.333-24.951-10.072-7.822-3.524-18.14-4.308-24.638-9.908-8.729-7.524-7.883-19.429-12.3-30.075-2.782-6.7-7.271-13.578-7.463-20.83-.264-9.934,7.222-18.43,11.186-27.545,2.675-6.161,3.383-13.233,7.287-18.7a25.886,25.886,0,0,1,17.58-11.044,67.42,67.42,0,0,0,12.2-3.2c4.344-1.538,10.823-6.594,15.166-8.129a32.425,32.425,0,0,1,8.048-1.079c1.879.088,6.268.712,7.937,1.589,10.218,5.35,10.68,6.761,19.3,9.987,7.072,2.645,17.439,3.724,23.562,12.277,4.481,6.257,4.141,14.768,7.232,21.813C237.944,83.083,244.473,89.8,244.492,98.834Zm-10.54,1.6a59.438,59.438,0,0,0-54.215-59.42l0-.2c-.069.061-.142.122-.211.187q-2.336-.189-4.718-.187c-32.665,0-59.144,26.692-59.144,59.622s26.479,59.626,59.144,59.626c.142,0,.28,0,.421,0C207.7,159.83,233.953,133.222,233.953,100.434Z" transform="translate(-104.817 -29.131)"/><path class="a" d="M177.144,43.321q2.383,0,4.718.187a39.573,39.573,0,0,0-5.889,6.72s-52,1.175-52,52.834c0,51.953,53.01,54.111,53.01,54.111l.582,5.335v.058c-.142,0-.28,0-.421,0-32.665,0-59.144-26.7-59.144-59.626S144.479,43.321,177.144,43.321Z" transform="translate(-107.148 -31.64)"/><path class="a" d="M194.865,43.567a59.438,59.438,0,0,1,54.215,59.42c0,32.788-26.251,59.4-58.718,59.622v-.058a49.711,49.711,0,0,0,3.907-5.335s48.5-6.222,48.5-54.111S194.686,50.26,194.686,50.26Z" transform="translate(-119.945 -31.684)"/><path class="a" d="M182.867,93.395a110.5,110.5,0,0,0,4.6,10.3c2.307,4.324,10.555,20.707,12.376,31.6,1.672,10-.831,21.177-6.9,30.729a49.711,49.711,0,0,1-3.907,5.335l-.582-5.335a47.616,47.616,0,0,0,8.174-22.219c.708-7.78-1.4-18.541-7.745-32.456C183.162,98.821,182.867,93.395,182.867,93.395Z" transform="translate(-118.619 -40.495)"/><path class="a" d="M192.977,43.564l-.179,6.693c-.8,1.186-4.792,2.775-8.316,12.518S180.876,74.32,182.3,84.58c-4.764-14.14-2.039-20.765.364-26.662a40.967,40.967,0,0,1,10.1-14.37C192.839,43.552,192.908,43.56,192.977,43.564Z" transform="translate(-118.056 -31.681)"/></g></svg>